<?xml version="1.0" encoding="UTF-8"?>
<svg id="a" data-name="레이어_2" xmlns="http://www.w3.org/2000/svg" width="512" height="512" viewBox="0 0 512 512">
  <g>
    <path d="M256,511.5c-68.247,0-132.408-26.577-180.666-74.834C27.077,388.408.5,324.246.5,256S27.077,123.592,75.334,75.334C123.592,27.077,187.753.5,256,.5s132.408,26.577,180.666,74.834c48.257,48.257,74.834,112.419,74.834,180.666s-26.577,132.408-74.834,180.666c-48.258,48.257-112.42,74.834-180.666,74.834Z" fill="#afafaf"/>
    <path d="M256,1c34.425,0,67.82,6.742,99.257,20.039,30.365,12.843,57.636,31.23,81.055,54.649,23.419,23.419,41.806,50.69,54.649,81.055,13.297,31.437,20.039,64.832,20.039,99.257s-6.742,67.82-20.039,99.257c-12.843,30.365-31.23,57.636-54.649,81.055s-50.69,41.806-81.055,54.649c-31.437,13.297-64.832,20.039-99.257,20.039s-67.82-6.742-99.257-20.039c-30.365-12.843-57.636-31.23-81.055-54.649-23.419-23.419-41.806-50.69-54.649-81.055C7.742,323.82,1,290.425,1,256s6.742-67.82,20.039-99.257c12.843-30.365,31.23-57.636,54.649-81.055,23.419-23.419,50.69-41.806,81.055-54.649C188.18,7.742,221.575,1,256,1M256,0C114.615,0,0,114.615,0,256s114.615,256,256,256,256-114.615,256-256S397.385,0,256,0h0Z"/>
  </g>
  <path d="M107.285,262.322c-.086-2.098-.129-4.196-.129-6.322,0-6.408.402-12.716,1.193-18.909,1.078-8.478,2.859-16.725,5.302-24.685,2.471-8.133,5.647-15.964,9.411-23.435,3.822-7.558,8.262-14.742,13.262-21.481,5.015-6.782,10.604-13.119,16.682-18.952,6.078-5.819,12.644-11.136,19.642-15.863,6.954-4.713,14.311-8.851,22.027-12.343,7.615-3.449,15.576-6.265,23.809-8.406,8.061-2.098,16.38-3.535,24.901-4.239,4.153-.359,8.363-.532,12.616-.532s8.463.172,12.616.532c8.521.704,16.84,2.141,24.901,4.239,8.233,2.141,16.193,4.957,23.809,8.406,7.716,3.492,15.073,7.63,22.027,12.343,6.998,4.727,13.564,10.044,19.642,15.863,6.078,5.834,11.667,12.17,16.682,18.952,5,6.739,9.44,13.923,13.262,21.481,3.765,7.472,6.94,15.303,9.411,23.435,2.443,7.96,4.224,16.208,5.302,24.685.79,6.193,1.193,12.501,1.193,18.909,0,2.127-.043,4.224-.129,6.322-.359,8.564-1.437,16.926-3.19,25.044-1.782,8.334-4.268,16.395-7.385,24.139-3.161,7.874-6.969,15.403-11.38,22.544-4.425,7.184-9.454,13.966-15.03,20.274-5.561,6.322-11.653,12.185-18.219,17.472h-.014c-6.538,5.302-13.507,10.044-20.892,14.167-7.314,4.095-15.001,7.587-23.004,10.403-7.86,2.788-16.035,4.928-24.441,6.351-8.176,1.408-16.581,2.127-25.159,2.127s-16.984-.718-25.159-2.127c-8.406-1.422-16.581-3.563-24.441-6.351-8.003-2.816-15.691-6.308-23.004-10.403-7.385-4.124-14.354-8.865-20.892-14.167h-.014c-6.566-5.288-12.659-11.15-18.219-17.472-5.575-6.308-10.604-13.09-15.03-20.274-4.411-7.141-8.219-14.67-11.38-22.544-3.118-7.745-5.604-15.805-7.385-24.139-1.753-8.118-2.831-16.481-3.175-25.044h-.014Z" fill="none" stroke="#000" stroke-miterlimit="10"/>
  <path d="M107.155,256c0-6.408.402-12.716,1.193-18.909,1.078-8.478,2.859-16.725,5.302-24.685,2.471-8.133,5.647-15.964,9.411-23.435,3.822-7.558,8.262-14.742,13.262-21.481,5.015-6.782,10.604-13.119,16.682-18.952,6.078-5.819,12.644-11.136,19.642-15.863,6.954-4.713,14.311-8.851,22.027-12.343,7.615-3.449,15.576-6.265,23.809-8.406,8.061-2.098,16.38-3.535,24.901-4.239,4.153-.359,8.363-.532,12.616-.532s8.463.172,12.616.532c8.521.704,16.84,2.141,24.901,4.239,8.233,2.141,16.193,4.957,23.809,8.406,7.716,3.492,15.073,7.63,22.027,12.343,6.998,4.727,13.564,10.044,19.642,15.863,6.078,5.834,11.667,12.17,16.682,18.952,5,6.739,9.44,13.923,13.262,21.481,3.765,7.472,6.94,15.303,9.411,23.435,2.443,7.96,4.224,16.208,5.302,24.685.79,6.193,1.193,12.501,1.193,18.909,0,2.127-.043,4.224-.129,6.322-.359,8.564-1.437,16.926-3.19,25.044-1.782,8.334-4.268,16.395-7.385,24.139-3.161,7.874-6.969,15.403-11.38,22.544-4.425,7.184-9.454,13.966-15.03,20.274-5.561,6.322-11.653,12.185-18.219,17.472h-.014c-6.538,5.302-13.507,10.044-20.892,14.167-7.314,4.095-15.001,7.587-23.004,10.403-7.86,2.788-16.035,4.928-24.441,6.351-8.176,1.408-16.581,2.127-25.159,2.127s-16.984-.718-25.159-2.127c-8.406-1.422-16.581-3.563-24.441-6.351-8.003-2.816-15.691-6.308-23.004-10.403-7.385-4.124-14.354-8.865-20.892-14.167h-.014c-6.566-5.288-12.659-11.15-18.219-17.472-5.575-6.308-10.604-13.09-15.03-20.274-4.411-7.141-8.219-14.67-11.38-22.544-3.118-7.745-5.604-15.805-7.385-24.139-1.753-8.118-2.831-16.481-3.175-25.044h-.014c-.086-2.098-.129-4.196-.129-6.322Z" fill="none" stroke="#000" stroke-miterlimit="10"/>
  <path d="M107.155,256c0-6.408.402-12.716,1.193-18.909,1.078-8.478,2.859-16.725,5.302-24.685,2.471-8.133,5.647-15.964,9.411-23.435,3.822-7.558,8.262-14.742,13.262-21.481,5.015-6.782,10.604-13.119,16.682-18.952,6.078-5.819,12.644-11.136,19.642-15.863,6.954-4.713,14.311-8.851,22.027-12.343,7.615-3.449,15.576-6.265,23.809-8.406,8.061-2.098,16.38-3.535,24.901-4.239,4.153-.359,8.363-.532,12.616-.532s8.463.172,12.616.532c8.521.704,16.84,2.141,24.901,4.239,8.233,2.141,16.193,4.957,23.809,8.406,7.716,3.492,15.073,7.63,22.027,12.343,6.998,4.727,13.564,10.044,19.642,15.863,6.078,5.834,11.667,12.17,16.682,18.952,5,6.739,9.44,13.923,13.262,21.481,3.765,7.472,6.94,15.303,9.411,23.435,2.443,7.96,4.224,16.208,5.302,24.685.79,6.193,1.193,12.501,1.193,18.909,0,2.127-.043,4.224-.129,6.322-.359,8.564-1.437,16.926-3.19,25.044-1.782,8.334-4.268,16.395-7.385,24.139-3.161,7.874-6.969,15.403-11.38,22.544-4.425,7.184-9.454,13.966-15.03,20.274-5.561,6.322-11.653,12.185-18.219,17.472h-.014c-6.538,5.302-13.507,10.044-20.892,14.167-7.314,4.095-15.001,7.587-23.004,10.403-7.86,2.788-16.035,4.928-24.441,6.351-8.176,1.408-16.581,2.127-25.159,2.127s-16.984-.718-25.159-2.127c-8.406-1.422-16.581-3.563-24.441-6.351-8.003-2.816-15.691-6.308-23.004-10.403-7.385-4.124-14.354-8.865-20.892-14.167h-.014c-6.566-5.288-12.659-11.15-18.219-17.472-5.575-6.308-10.604-13.09-15.03-20.274-4.411-7.141-8.219-14.67-11.38-22.544-3.118-7.745-5.604-15.805-7.385-24.139-1.753-8.118-2.831-16.481-3.175-25.044h-.014c-.086-2.098-.129-4.196-.129-6.322Z" fill="#fff" stroke="#000" stroke-miterlimit="10"/>
  <path d="M112.745,256c0-6.168.387-12.239,1.148-18.199,1.037-8.159,2.752-16.097,5.103-23.758,2.379-7.827,5.435-15.364,9.058-22.555,3.679-7.274,7.952-14.189,12.764-20.674,4.826-6.527,10.206-12.626,16.056-18.241,5.85-5.601,12.17-10.718,18.904-15.267,6.693-4.536,13.774-8.519,21.2-11.879,7.329-3.319,14.991-6.029,22.915-8.09,7.758-2.019,15.765-3.402,23.966-4.08,3.997-.346,8.049-.512,12.142-.512s8.145.166,12.142.512c8.201.678,16.208,2.061,23.966,4.08,7.924,2.061,15.585,4.771,22.915,8.09,7.426,3.36,14.507,7.343,21.2,11.879,6.735,4.55,13.055,9.666,18.904,15.267,5.85,5.615,11.229,11.713,16.056,18.241,4.813,6.486,9.086,13.4,12.764,20.674,3.623,7.191,6.679,14.728,9.058,22.555,2.351,7.661,4.066,15.599,5.103,23.758.761,5.96,1.148,12.031,1.148,18.199,0,2.047-.042,4.066-.124,6.085-.346,8.242-1.383,16.291-3.07,24.104-1.715,8.021-4.107,15.779-7.108,23.233-3.042,7.578-6.707,14.825-10.953,21.698-4.259,6.915-9.099,13.442-14.465,19.513-5.352,6.085-11.215,11.727-17.535,16.816h-.014c-6.292,5.103-12.999,9.666-20.107,13.635-7.039,3.941-14.438,7.302-22.14,10.012-7.565,2.683-15.433,4.743-23.523,6.112-7.869,1.355-15.959,2.047-24.215,2.047s-16.346-.691-24.215-2.047c-8.09-1.369-15.959-3.43-23.523-6.112-7.703-2.71-15.101-6.071-22.14-10.012-7.108-3.969-13.815-8.532-20.107-13.635h-.014c-6.32-5.089-12.183-10.731-17.535-16.816-5.366-6.071-10.206-12.598-14.465-19.513-4.246-6.873-7.91-14.119-10.953-21.698-3.001-7.454-5.393-15.212-7.108-23.233-1.687-7.813-2.724-15.862-3.056-24.104h-.014c-.083-2.019-.124-4.038-.124-6.085Z" fill="#fff" stroke="#000" stroke-miterlimit="10" stroke-width="2"/>
  <path d="M238.527,256c0-.752.047-1.493.14-2.22.127-.995.336-1.963.622-2.898.29-.955.663-1.874,1.105-2.751.449-.887.97-1.731,1.557-2.522.589-.796,1.245-1.54,1.958-2.225.713-.683,1.484-1.307,2.306-1.862.816-.553,1.68-1.039,2.586-1.449.894-.405,1.828-.735,2.795-.987.946-.246,1.923-.415,2.923-.498.487-.042.982-.062,1.481-.062s.993.02,1.481.062c1,.083,1.977.251,2.923.498.966.251,1.901.582,2.795.987.906.41,1.769.896,2.586,1.449.821.555,1.592,1.179,2.306,1.862.713.685,1.37,1.429,1.958,2.225.587.791,1.108,1.634,1.557,2.522.442.877.815,1.796,1.105,2.751.287.934.496,1.903.622,2.898.093.727.14,1.467.14,2.22,0,.25-.005.496-.015.742-.042,1.005-.169,1.987-.374,2.94-.209.978-.501,1.925-.867,2.834-.371.924-.818,1.808-1.336,2.646-.519.843-1.11,1.639-1.764,2.38-.653.742-1.368,1.43-2.139,2.051h-.002c-.767.622-1.586,1.179-2.452,1.663-.859.481-1.761.891-2.7,1.221-.923.327-1.882.579-2.869.746-.96.165-1.946.25-2.953.25s-1.994-.084-2.953-.25c-.987-.167-1.946-.418-2.869-.746-.939-.331-1.842-.74-2.7-1.221-.867-.484-1.685-1.041-2.452-1.663h-.002c-.771-.621-1.486-1.309-2.139-2.051-.654-.74-1.245-1.537-1.764-2.38-.518-.838-.965-1.722-1.336-2.646-.366-.909-.658-1.855-.867-2.834-.206-.953-.332-1.935-.373-2.94h-.002c-.01-.246-.015-.493-.015-.742Z" fill="#fff" stroke="#000" stroke-miterlimit="10"/>
  <path d="M248.067,256c0-.342.021-.678.064-1.008.057-.452.152-.891.283-1.316.132-.433.301-.851.502-1.249.204-.403.44-.786.707-1.145.267-.361.565-.699.889-1.01.324-.31.674-.594,1.047-.845.371-.251.763-.472,1.174-.658.406-.184.83-.334,1.269-.448.43-.112.873-.188,1.327-.226.221-.019.446-.028.672-.028s.451.009.672.028c.454.038.898.114,1.327.226.439.114.863.264,1.269.448.411.186.803.407,1.174.658.373.252.723.535,1.047.845.324.311.622.649.889,1.01.267.359.503.742.707,1.145.201.398.37.816.502,1.249.13.424.225.864.283,1.316.042.33.064.666.064,1.008,0,.113-.002.225-.007.337-.019.456-.077.902-.17,1.335-.095.444-.227.874-.394,1.287-.168.42-.371.821-.607,1.202-.236.383-.504.744-.801,1.081-.296.337-.621.649-.971.931h0c-.348.283-.72.535-1.114.755-.39.218-.8.404-1.226.554-.419.149-.855.263-1.303.339-.436.075-.884.113-1.341.113s-.905-.038-1.341-.113c-.448-.076-.884-.19-1.303-.339-.427-.15-.836-.336-1.226-.554-.394-.22-.765-.473-1.114-.755h0c-.35-.282-.675-.594-.971-.931-.297-.336-.565-.698-.801-1.081-.235-.381-.438-.782-.607-1.202-.166-.413-.299-.842-.394-1.287-.093-.433-.151-.878-.169-1.335h0c-.005-.112-.007-.224-.007-.337Z" fill="#fff" stroke="#000" stroke-linecap="square" stroke-linejoin="round" stroke-width="5"/>
  <path d="M256,77.829c-5.086,0-10.13.215-15.116.632l2.5,29.226c4.153-.359,8.363-.532,12.616-.532s8.463.172,12.616.532l2.5-29.226c-4.986-.417-10.029-.632-15.116-.632Z" fill="#3ead51" stroke="#000" stroke-miterlimit="10"/>
  <path d="M51.391,300.097l30.404-6.552c2.141,9.972,5.101,19.628,8.837,28.895l-28.852,11.595c-4.382-10.891-7.874-22.228-10.389-33.939Z" fill="#494949" stroke="#000" stroke-miterlimit="10"/>
  <path d="M104.267,349.425c5.302,8.607,11.322,16.725,17.989,24.283l-23.349,20.533c-7.817-8.865-14.886-18.406-21.122-28.507l26.481-16.308Z" fill="#494949" stroke="#000" stroke-miterlimit="10"/>
  <path d="M124.542,418.811l19.527-24.197c7.817,6.337,16.193,12.012,25.016,16.955l-15.159,27.142c-10.374-5.791-20.202-12.458-29.384-19.901Z" fill="#494949" stroke="#000" stroke-miterlimit="10"/>
  <path d="M153.925,438.711l15.159-27.142c8.75,4.9,17.961,9.081,27.545,12.472l-10.36,29.326c-11.251-3.98-22.07-8.894-32.344-14.656Z" fill="#c43333" stroke="#000" stroke-miterlimit="10"/>
  <path d="M186.269,453.367l10.36-29.326c9.411,3.319,19.196,5.877,29.254,7.587l-5.259,30.648c-11.825-1.997-23.306-5-34.355-8.909Z" fill="#494949" stroke="#000" stroke-miterlimit="10"/>
  <path d="M220.624,462.276l5.259-30.648c9.785,1.681,19.857,2.543,30.117,2.543v31.094c-12.055,0-23.881-1.02-35.376-2.989Z" fill="#c43333" stroke="#000" stroke-miterlimit="10"/>
  <path d="M286.117,431.628c10.058-1.71,19.843-4.268,29.254-7.587l10.36,29.326c-11.049,3.908-22.53,6.911-34.355,8.909l-5.259-30.648Z" fill="#c43333" stroke="#000" stroke-miterlimit="10"/>
  <path d="M342.916,411.569c8.822-4.943,17.199-10.618,25.016-16.955l19.527,24.197c-9.182,7.443-19.01,14.11-29.384,19.901l-15.159-27.142Z" fill="#c43333" stroke="#000" stroke-miterlimit="10"/>
  <path d="M389.743,373.708c6.667-7.558,12.687-15.676,17.989-24.283l26.481,16.308c-6.236,10.101-13.305,19.642-21.122,28.507l-23.349-20.533Z" fill="#c43333" stroke="#000" stroke-miterlimit="10"/>
  <path d="M407.733,349.425c5.273-8.549,9.843-17.558,13.636-26.984l28.852,11.595c-4.44,11.064-9.814,21.668-16.007,31.697l-26.481-16.308Z" fill="#494949" stroke="#000" stroke-miterlimit="10"/>
  <path d="M430.205,293.545c2.083-9.728,3.377-19.742,3.808-29.987l31.065,1.322c-.503,12.027-2.012,23.794-4.469,35.217l-30.404-6.552Z" fill="#494949" stroke="#000" stroke-miterlimit="10"/>
  <path d="M421.368,322.44c3.736-9.268,6.696-18.923,8.837-28.895l30.404,6.552c-2.515,11.71-6.006,23.047-10.389,33.939l-28.852-11.595Z" fill="#c43333" stroke="#000" stroke-miterlimit="10"/>
  <path d="M432.734,233.369l30.864-3.951c1.092,8.707,1.667,17.573,1.667,26.582,0,2.974-.058,5.934-.187,8.88l-31.065-1.322c.101-2.5.158-5.029.158-7.558,0-7.673-.489-15.216-1.437-22.631Z" fill="#c43333" stroke="#000" stroke-miterlimit="10"/>
  <path d="M415.118,175.766l27.775-13.995c5.316,10.503,9.756,21.51,13.248,32.947l-29.743,9.095c-2.974-9.727-6.753-19.11-11.279-28.047Z" fill="#c43333" stroke="#000" stroke-miterlimit="10"/>
  <path d="M379.283,127.372l21.51-22.444c8.549,8.19,16.409,17.099,23.464,26.639l-25.001,18.492c-6.006-8.118-12.688-15.705-19.972-22.688Z" fill="#c43333" stroke="#000" stroke-miterlimit="10"/>
  <path d="M329.409,93.606l12.802-28.335c10.863,4.914,21.222,10.719,30.979,17.343l-17.415,25.763c-8.319-5.647-17.127-10.59-26.366-14.771Z" fill="#c43333" stroke="#000" stroke-miterlimit="10"/>
  <path d="M300.902,83.534l7.831-30.102c11.581,3.017,22.774,6.983,33.479,11.84l-12.802,28.335c-9.124-4.124-18.651-7.515-28.507-10.072Z" fill="#494949" stroke="#000" stroke-miterlimit="10"/>
  <path d="M271.116,78.461l2.629-30.979c11.983,1.006,23.665,3.017,34.988,5.949l-7.831,30.102c-9.641-2.5-19.584-4.21-29.786-5.072Z" fill="#c43333" stroke="#000" stroke-miterlimit="10"/>
  <path d="M203.267,53.431c11.322-2.931,23.004-4.943,34.988-5.949l2.629,30.979c-10.202.862-20.145,2.572-29.786,5.072l-7.831-30.102Z" fill="#494949" stroke="#000" stroke-miterlimit="10"/>
  <path d="M138.81,82.614c9.756-6.624,20.116-12.429,30.979-17.343l12.802,28.335c-9.239,4.181-18.047,9.124-26.366,14.771l-17.415-25.763Z" fill="#494949" stroke="#000" stroke-miterlimit="10"/>
  <path d="M87.744,131.568c7.055-9.541,14.915-18.449,23.464-26.639l21.51,22.444c-7.285,6.983-13.966,14.57-19.972,22.688l-25.001-18.492Z" fill="#494949" stroke="#000" stroke-miterlimit="10"/>
  <path d="M55.86,194.718c3.492-11.437,7.931-22.444,13.248-32.947l27.775,13.995c-4.526,8.937-8.305,18.32-11.279,28.047l-29.743-9.095Z" fill="#494949" stroke="#000" stroke-miterlimit="10"/>
  <path d="M48.402,229.418c1.509-11.912,4.023-23.507,7.457-34.7l29.743,9.095c-2.917,9.526-5.058,19.412-6.337,29.556l-30.864-3.951Z" fill="#c43333" stroke="#000" stroke-miterlimit="10"/>
  <path d="M46.735,256c0-9.009.575-17.875,1.667-26.582l30.864,3.951c-.948,7.414-1.437,14.958-1.437,22.631,0,2.529.057,5.058.158,7.558l-31.065,1.322c-.129-2.946-.187-5.905-.187-8.88Z" fill="#494949" stroke="#000" stroke-miterlimit="10"/>
  <path d="M196.629,424.041l9.771-27.674c7.86,2.788,16.035,4.928,24.441,6.351l-4.957,28.91c-10.058-1.71-19.843-4.268-29.254-7.587Z" fill="#494949" stroke="#000" stroke-miterlimit="10"/>
  <path d="M169.084,411.569l14.311-25.605c7.314,4.095,15.001,7.587,23.004,10.403l-9.771,27.674c-9.584-3.391-18.794-7.572-27.545-12.472Z" fill="#c43333" stroke="#000" stroke-miterlimit="10"/>
  <path d="M225.883,431.628l4.957-28.91c8.176,1.408,16.581,2.127,25.159,2.127v29.326c-10.259,0-20.332-.862-30.117-2.543Z" fill="#c43333" stroke="#000" stroke-miterlimit="10"/>
  <path d="M394.14,311.506c3.118-7.745,5.604-15.805,7.385-24.139l28.68,6.178c-2.141,9.972-5.101,19.628-8.837,28.895l-27.229-10.934Z" fill="#c43333" stroke="#000" stroke-miterlimit="10"/>
  <path d="M403.652,237.091l29.082-3.722c.948,7.414,1.437,14.958,1.437,22.631,0,2.529-.057,5.058-.158,7.558l-29.298-1.236c.086-2.098.129-4.196.129-6.322,0-6.408-.402-12.716-1.193-18.909Z" fill="#c43333" stroke="#000" stroke-miterlimit="10"/>
  <path d="M398.35,212.406l28.048-8.592c2.917,9.526,5.058,19.412,6.337,29.556l-29.082,3.722c-1.078-8.478-2.859-16.725-5.302-24.685Z" fill="#494949" stroke="#000" stroke-miterlimit="10"/>
  <path d="M268.616,107.687l2.5-29.226c10.202.862,20.145,2.572,29.786,5.072l-7.385,28.392c-8.061-2.098-16.38-3.535-24.901-4.239Z" fill="#c43333" stroke="#000" stroke-miterlimit="10"/>
  <path d="M77.829,256c0-7.673.489-15.216,1.437-22.631l29.082,3.722c-.79,6.193-1.193,12.501-1.193,18.909,0,2.127.043,4.224.129,6.322l-29.298,1.236c-.101-2.5-.158-5.029-.158-7.558Z" fill="#494949" stroke="#000" stroke-miterlimit="10"/>
  <path d="M256,465.265v-31.094c10.259,0,20.332-.862,30.117-2.543l5.259,30.648c-11.495,1.968-23.32,2.989-35.376,2.989Z" fill="#494949" stroke="#000" stroke-miterlimit="10"/>
  <path d="M256,434.171v-29.326c8.578,0,16.984-.718,25.159-2.127l4.957,28.91c-9.785,1.681-19.857,2.543-30.117,2.543Z" fill="#494949" stroke="#000" stroke-miterlimit="10"/>
  <path d="M281.159,402.718c8.406-1.422,16.581-3.563,24.441-6.351l9.771,27.674c-9.411,3.319-19.196,5.877-29.254,7.587l-4.957-28.91Z" fill="#c43333" stroke="#000" stroke-miterlimit="10"/>
  <path d="M315.371,424.041c9.584-3.391,18.794-7.572,27.545-12.472l15.159,27.142c-10.274,5.762-21.093,10.676-32.344,14.656l-10.36-29.326Z" fill="#494949" stroke="#000" stroke-miterlimit="10"/>
  <path d="M305.6,396.367c8.003-2.816,15.691-6.308,23.004-10.403l14.311,25.605c-8.75,4.9-17.961,9.081-27.545,12.472l-9.771-27.674Z" fill="#494949" stroke="#000" stroke-miterlimit="10"/>
  <path d="M328.605,385.964c7.385-4.124,14.354-8.865,20.892-14.167h.014l18.421,22.817c-7.817,6.337-16.193,12.012-25.016,16.955l-14.311-25.605Z" fill="#c43333" stroke="#000" stroke-miterlimit="10"/>
  <path d="M367.932,394.614c7.86-6.337,15.159-13.334,21.812-20.906l23.349,20.533c-7.831,8.894-16.409,17.127-25.634,24.57l-19.527-24.197Z" fill="#494949" stroke="#000" stroke-miterlimit="10"/>
  <path d="M349.511,371.797c6.566-5.288,12.659-11.15,18.219-17.472l22.013,19.383c-6.653,7.572-13.952,14.57-21.812,20.906l-18.421-22.817Z" fill="#494949" stroke="#000" stroke-miterlimit="10"/>
  <path d="M367.73,354.324c5.575-6.308,10.604-13.09,15.03-20.274l24.973,15.374c-5.302,8.607-11.322,16.725-17.989,24.283l-22.013-19.383Z" fill="#c43333" stroke="#000" stroke-miterlimit="10"/>
  <path d="M382.76,334.05c4.411-7.141,8.219-14.67,11.38-22.544l27.229,10.934c-3.793,9.426-8.363,18.435-13.636,26.984l-24.973-15.374Z" fill="#494949" stroke="#000" stroke-miterlimit="10"/>
  <path d="M401.525,287.367c1.753-8.118,2.831-16.481,3.19-25.044l29.298,1.236c-.431,10.245-1.724,20.26-3.808,29.987l-28.68-6.178Z" fill="#494949" stroke="#000" stroke-miterlimit="10"/>
  <path d="M426.397,203.813l29.743-9.095c3.434,11.193,5.949,22.789,7.457,34.7l-30.864,3.951c-1.279-10.144-3.42-20.03-6.337-29.556Z" fill="#494949" stroke="#000" stroke-miterlimit="10"/>
  <path d="M388.938,188.97l26.18-13.205c4.526,8.937,8.305,18.32,11.279,28.047l-28.048,8.592c-2.471-8.133-5.647-15.964-9.411-23.435Z" fill="#c43333" stroke="#000" stroke-miterlimit="10"/>
  <path d="M399.255,150.06l25.001-18.492c7.026,9.483,13.277,19.584,18.636,30.203l-27.775,13.995c-4.555-9.038-9.871-17.63-15.863-25.705Z" fill="#494949" stroke="#000" stroke-miterlimit="10"/>
  <path d="M375.676,167.489l23.579-17.429c5.992,8.075,11.308,16.668,15.863,25.705l-26.18,13.205c-3.822-7.558-8.262-14.742-13.262-21.481Z" fill="#494949" stroke="#000" stroke-miterlimit="10"/>
  <path d="M358.994,148.537l20.288-21.165c7.285,6.983,13.966,14.57,19.972,22.688l-23.579,17.429c-5.015-6.782-10.604-13.119-16.682-18.952Z" fill="#c43333" stroke="#000" stroke-miterlimit="10"/>
  <path d="M355.776,108.377l17.415-25.763c9.828,6.653,19.067,14.124,27.602,22.314l-21.51,22.444c-7.271-6.969-15.13-13.334-23.507-18.995Z" fill="#494949" stroke="#000" stroke-miterlimit="10"/>
  <path d="M339.352,132.674l16.423-24.297c8.377,5.661,16.237,12.027,23.507,18.995l-20.288,21.165c-6.078-5.819-12.644-11.136-19.642-15.863Z" fill="#494949" stroke="#000" stroke-miterlimit="10"/>
  <path d="M317.325,120.332l12.084-26.726c9.239,4.181,18.047,9.124,26.366,14.771l-16.423,24.297c-6.954-4.713-14.311-8.851-22.027-12.343Z" fill="#c43333" stroke="#000" stroke-miterlimit="10"/>
  <path d="M293.516,111.926l7.385-28.392c9.857,2.558,19.383,5.949,28.507,10.072l-12.084,26.726c-7.615-3.449-15.576-6.265-23.809-8.406Z" fill="#494949" stroke="#000" stroke-miterlimit="10"/>
  <path d="M211.098,83.534c9.641-2.5,19.584-4.21,29.786-5.072l2.5,29.226c-8.521.704-16.84,2.141-24.901,4.239l-7.385-28.392Z" fill="#494949" stroke="#000" stroke-miterlimit="10"/>
  <path d="M169.788,65.271c10.705-4.857,21.898-8.822,33.479-11.84l7.831,30.102c-9.857,2.558-19.383,5.949-28.507,10.072l-12.802-28.335Z" fill="#c43333" stroke="#000" stroke-miterlimit="10"/>
  <path d="M182.591,93.606c9.124-4.124,18.651-7.515,28.507-10.072l7.385,28.392c-8.233,2.141-16.193,4.957-23.809,8.406l-12.084-26.726Z" fill="#c43333" stroke="#000" stroke-miterlimit="10"/>
  <path d="M156.224,108.377c8.319-5.647,17.127-10.59,26.366-14.771l12.084,26.726c-7.716,3.492-15.073,7.63-22.027,12.343l-16.423-24.297Z" fill="#494949" stroke="#000" stroke-miterlimit="10"/>
  <path d="M111.207,104.928c8.535-8.19,17.774-15.662,27.602-22.314l17.415,25.763c-8.377,5.661-16.237,12.027-23.507,18.995l-21.51-22.444Z" fill="#c43333" stroke="#000" stroke-miterlimit="10"/>
  <path d="M132.717,127.372c7.271-6.969,15.13-13.334,23.507-18.995l16.423,24.297c-6.998,4.727-13.564,10.044-19.642,15.863l-20.288-21.165Z" fill="#c43333" stroke="#000" stroke-miterlimit="10"/>
  <path d="M112.745,150.06c6.006-8.118,12.688-15.705,19.972-22.688l20.288,21.165c-6.078,5.834-11.667,12.17-16.682,18.952l-23.579-17.429Z" fill="#494949" stroke="#000" stroke-miterlimit="10"/>
  <path d="M69.107,161.771c5.359-10.618,11.61-20.72,18.636-30.203l25.001,18.492c-5.992,8.075-11.308,16.668-15.863,25.705l-27.775-13.995Z" fill="#c43333" stroke="#000" stroke-miterlimit="10"/>
  <path d="M96.882,175.766c4.555-9.038,9.871-17.63,15.863-25.705l23.579,17.429c-5,6.739-9.44,13.923-13.262,21.481l-26.18-13.205Z" fill="#c43333" stroke="#000" stroke-miterlimit="10"/>
  <path d="M85.603,203.813c2.974-9.727,6.753-19.11,11.279-28.047l26.18,13.205c-3.765,7.472-6.94,15.303-9.411,23.435l-28.048-8.592Z" fill="#494949" stroke="#000" stroke-miterlimit="10"/>
  <path d="M79.266,233.369c1.279-10.144,3.42-20.03,6.337-29.556l28.048,8.592c-2.443,7.96-4.224,16.208-5.302,24.685l-29.082-3.722Z" fill="#c43333" stroke="#000" stroke-miterlimit="10"/>
  <path d="M46.922,264.88l31.065-1.322c.431,10.245,1.724,20.26,3.808,29.987l-30.404,6.552c-2.457-11.423-3.966-23.191-4.469-35.217Z" fill="#c43333" stroke="#000" stroke-miterlimit="10"/>
  <path d="M77.987,263.558l29.298-1.236h.014c.345,8.564,1.422,16.926,3.175,25.044l-28.68,6.178c-2.083-9.728-3.377-19.742-3.808-29.987Z" fill="#c43333" stroke="#000" stroke-miterlimit="10"/>
  <path d="M81.795,293.545l28.68-6.178c1.782,8.334,4.268,16.395,7.385,24.139l-27.229,10.934c-3.736-9.268-6.696-18.923-8.837-28.895Z" fill="#494949" stroke="#000" stroke-miterlimit="10"/>
  <path d="M61.779,334.036l28.852-11.595c3.793,9.426,8.363,18.435,13.636,26.984l-26.481,16.308c-6.193-10.029-11.567-20.633-16.007-31.697Z" fill="#c43333" stroke="#000" stroke-miterlimit="10"/>
  <path d="M90.632,322.44l27.229-10.934c3.161,7.874,6.969,15.403,11.38,22.544l-24.973,15.374c-5.273-8.549-9.843-17.558-13.636-26.984Z" fill="#c43333" stroke="#000" stroke-miterlimit="10"/>
  <path d="M104.267,349.425l24.973-15.374c4.425,7.184,9.454,13.966,15.03,20.274l-22.013,19.383c-6.667-7.558-12.687-15.676-17.989-24.283Z" fill="#494949" stroke="#000" stroke-miterlimit="10"/>
  <path d="M98.908,394.24l23.349-20.533c6.653,7.572,13.952,14.57,21.812,20.906l-19.527,24.197c-9.225-7.443-17.803-15.676-25.634-24.57Z" fill="#c43333" stroke="#000" stroke-miterlimit="10"/>
  <path d="M122.257,373.708l22.013-19.383c5.561,6.322,11.653,12.185,18.219,17.472l-18.421,22.817c-7.86-6.337-15.159-13.334-21.812-20.906Z" fill="#c43333" stroke="#000" stroke-miterlimit="10"/>
  <path d="M144.068,394.614l18.421-22.817h.014c6.538,5.302,13.507,10.044,20.892,14.167l-14.311,25.605c-8.822-4.943-17.199-10.618-25.016-16.955Z" fill="#494949" stroke="#000" stroke-miterlimit="10"/>
  <path d="M238.255,47.483c5.848-.503,11.768-.747,17.745-.747s11.897.244,17.745.747l-2.629,30.979c-4.986-.417-10.029-.632-15.116-.632s-10.13.216-15.116.632l-2.629-30.979Z" fill="#3ead51" stroke="#000" stroke-miterlimit="10"/>
  <path d="M251.012,59.17c.077-1.042.283-1.966.621-2.771.337-.805.847-1.448,1.529-1.931.682-.482,1.628-.724,2.839-.724.996,0,1.82.142,2.472.425.65.284,1.172.74,1.562,1.368s.666,1.445.828,2.448c.16,1.004.24,2.227.24,3.667,0,1.134-.037,2.222-.115,3.265-.076,1.042-.283,1.965-.619,2.77-.338.805-.848,1.437-1.529,1.896-.682.46-1.629.69-2.839.69-.981,0-1.801-.13-2.46-.391-.659-.261-1.184-.705-1.575-1.333-.391-.628-.667-1.444-.828-2.449-.161-1.003-.242-2.226-.242-3.667,0-1.134.038-2.222.115-3.265ZM254.288,65.665c.054.651.149,1.165.288,1.54.138.376.322.632.552.771.23.138.521.207.874.207.368,0,.667-.088.896-.264s.41-.475.541-.896c.129-.421.223-.985.275-1.69.055-.705.08-1.578.08-2.621v-1.771c0-1.026-.025-1.866-.08-2.517-.053-.651-.148-1.165-.287-1.541-.138-.375-.322-.632-.552-.77-.23-.138-.521-.207-.874-.207-.368,0-.667.088-.896.264-.23.177-.41.476-.541.897s-.222.985-.276,1.689c-.054.705-.081,1.579-.081,2.621v1.77c0,1.027.027,1.866.081,2.518Z" fill="#fff"/>
  <g>
    <path d="M214.101,74.492c-.122-.711-.164-1.387-.126-2.032.037-.643.155-1.27.354-1.879.199-.609.475-1.221.829-1.834.354-.613.778-1.241,1.274-1.885l1.104-1.449c.309-.379.549-.724.721-1.033.172-.31.295-.611.37-.904.074-.292.103-.6.087-.925-.017-.323-.06-.688-.13-1.097-.228-1.329-.871-1.903-1.928-1.722-.408.07-.715.208-.92.414-.206.207-.348.465-.427.774-.079.309-.105.655-.078,1.04.027.383.077.787.149,1.21l-3.127.536-.105-.611c-.256-1.496-.053-2.713.61-3.651.664-.937,1.856-1.554,3.579-1.849,1.631-.28,2.905-.109,3.82.511.915.621,1.492,1.634,1.733,3.038.088.514.125,1.001.111,1.462-.014.462-.085.912-.211,1.354-.126.442-.314.882-.566,1.323-.251.439-.568.901-.951,1.388l-1.525,1.987c-.408.521-.713,1.013-.914,1.475-.201.462-.313.851-.336,1.166l6.05-1.038.436,2.538-9.88,1.694Z" fill="#fff"/>
    <path d="M228.988,58.13c-.276-.294-.686-.395-1.23-.302-.423.073-.749.233-.979.482-.229.25-.385.568-.465.955-.082.388-.102.833-.062,1.34.04.506.111,1.054.212,1.644l.136.793.045-.008c.199-.469.53-.873.994-1.208.463-.337,1.058-.566,1.783-.691.709-.122,1.335-.101,1.876.063.542.163,1.005.442,1.392.834.386.393.703.884.951,1.469.249.588.435,1.244.56,1.97.318,1.857.148,3.337-.51,4.436-.659,1.101-1.895,1.807-3.707,2.118-1.119.191-2.043.148-2.775-.13-.732-.279-1.334-.731-1.807-1.358-.473-.627-.84-1.384-1.101-2.272-.262-.889-.476-1.823-.645-2.806-.194-1.133-.349-2.238-.463-3.314-.115-1.076-.073-2.055.125-2.937.199-.882.618-1.634,1.258-2.258.639-.621,1.624-1.047,2.953-1.275.574-.098,1.141-.126,1.701-.082.559.044,1.07.19,1.532.438.463.247.863.61,1.202,1.088.338.479.582,1.103.729,1.87l-3.127.536c-.109-.634-.301-1.098-.577-1.394ZM227.739,68.328c.112.385.257.707.434.964.176.257.395.446.656.563.262.119.581.147.959.082.393-.067.692-.201.899-.4.207-.197.346-.452.418-.759.071-.307.093-.656.064-1.05-.028-.391-.081-.813-.159-1.267-.187-1.088-.456-1.842-.808-2.264-.353-.421-.845-.579-1.48-.47-.65.111-1.07.426-1.262.94-.191.515-.194,1.316-.007,2.404.078.453.173.872.286,1.257Z" fill="#fff"/>
  </g>
  <path d="M191.762,78.708c.389.391.924.466,1.604.227.375-.133.652-.304.83-.514.179-.208.289-.447.333-.715.043-.267.03-.56-.041-.875-.071-.316-.166-.642-.283-.974-.123-.347-.264-.667-.425-.959-.16-.293-.356-.536-.587-.732-.231-.194-.502-.318-.813-.371-.312-.053-.684-.002-1.117.151l-1.041.368-.72-2.037,1.018-.36c.333-.118.586-.285.762-.501.175-.217.292-.46.35-.733.059-.272.069-.565.032-.876-.037-.312-.112-.627-.224-.945-.261-.737-.567-1.214-.92-1.431-.353-.217-.782-.236-1.288-.058-.333.118-.582.275-.748.472-.167.197-.268.428-.303.693-.038.265-.02.555.051.872.071.315.171.656.298,1.016l-2.861,1.011c-.542-1.532-.561-2.805-.057-3.82.502-1.015,1.491-1.782,2.965-2.303,1.401-.495,2.602-.561,3.599-.2.998.364,1.737,1.224,2.217,2.583.327.925.388,1.752.183,2.483-.205.731-.647,1.307-1.329,1.726l.015.043c1.054-.193,1.899-.042,2.538.456.64.499,1.13,1.232,1.472,2.199.184.521.308,1.079.372,1.673.065.596-.012,1.183-.229,1.764-.219.58-.607,1.125-1.167,1.632-.561.507-1.375.948-2.445,1.326-1.489.526-2.744.515-3.767-.033-1.023-.549-1.798-1.569-2.323-3.057l-.023-.064,2.991-1.057c.331.89.691,1.532,1.082,1.921Z" fill="#fff"/>
  <g>
    <path d="M157.905,94.807c.451.318.99.303,1.619-.049.348-.194.591-.41.732-.646.14-.236.209-.49.207-.762-.002-.271-.065-.557-.188-.855-.124-.3-.271-.604-.443-.911-.179-.321-.374-.613-.58-.874-.208-.262-.442-.468-.703-.622-.262-.152-.549-.228-.865-.227-.316,0-.675.113-1.076.337l-.963.538-1.053-1.887.943-.527c.308-.172.53-.379.666-.622.137-.243.211-.503.222-.782.011-.278-.027-.568-.117-.869s-.216-.599-.38-.894c-.382-.683-.765-1.101-1.149-1.254-.385-.154-.811-.102-1.28.16-.308.172-.526.37-.657.593-.13.222-.191.466-.182.733.009.267.074.55.198.85.123.299.279.617.466.952l-2.649,1.48c-.792-1.419-1.027-2.671-.702-3.757.324-1.084,1.169-2.008,2.534-2.771,1.297-.725,2.468-.992,3.513-.804,1.045.189,1.919.913,2.621,2.169.479.857.679,1.663.6,2.417-.078.755-.418,1.396-1.018,1.925l.022.04c1.006-.368,1.865-.362,2.579.02.714.383,1.321,1.022,1.821,1.919.27.481.486,1.01.65,1.585.164.577.187,1.169.071,1.778-.117.608-.408,1.211-.875,1.806-.467.594-1.195,1.167-2.186,1.721-1.378.77-2.618.972-3.719.603-1.101-.368-2.037-1.241-2.806-2.618l-.034-.061,2.77-1.548c.477.822.94,1.393,1.391,1.712Z" fill="#fff"/>
    <path d="M162.064,80.12l1.504,3.398.04-.022c.058-.523.255-.988.59-1.396.335-.406.809-.782,1.425-1.125.682-.381,1.321-.567,1.915-.556.594.01,1.142.157,1.642.439.5.282.955.665,1.365,1.147.41.481.771,1.004,1.086,1.566.44.79.773,1.542.999,2.259.225.717.295,1.401.212,2.054-.083.652-.354,1.26-.812,1.822-.459.562-1.142,1.099-2.052,1.607-.896.501-1.69.786-2.38.855-.689.07-1.292-.011-1.807-.241-.515-.23-.952-.549-1.31-.955-.358-.405-.649-.809-.874-1.21l-.213-.381,2.77-1.547c.134.24.29.487.466.739.176.253.38.469.611.646.231.179.483.292.757.341.273.048.563-.013.872-.185.602-.336.904-.808.907-1.416.003-.606-.253-1.372-.769-2.296-.329-.589-.629-1.061-.899-1.42-.271-.358-.532-.616-.786-.772-.255-.155-.515-.221-.782-.195-.266.027-.56.128-.881.308-.415.232-.667.526-.757.884-.09.358-.05.751.122,1.184l-2.589,1.446-3.795-8.019,7.406-4.138,1.256,2.248-5.238,2.927Z" fill="#fff"/>
  </g>
  <g>
    <path d="M126.612,106.662l-2.522,2.037-1.357-1.681.232-.188c.859-.693,1.405-1.401,1.641-2.122.234-.722.128-1.494-.318-2.315l1.896-1.531,10.226,12.664-2.576,2.08-7.222-8.944Z" fill="#fff"/>
    <path d="M139.486,111.043c-.453-.562-.82-1.131-1.101-1.712-.281-.581-.484-1.185-.608-1.814-.124-.628-.181-1.297-.171-2.005.01-.707.074-1.463.192-2.268l.258-1.803c.084-.482.125-.9.125-1.254,0-.354-.04-.677-.118-.969-.077-.292-.202-.575-.375-.85-.172-.273-.388-.572-.648-.895-.847-1.049-1.688-1.237-2.523-.563-.322.26-.522.531-.601.811-.079.28-.077.576.004.884.082.309.227.624.439.946.21.322.451.65.72.983l-2.468,1.993-.39-.482c-.953-1.181-1.37-2.342-1.248-3.485.122-1.141.863-2.262,2.222-3.359,1.288-1.04,2.482-1.512,3.584-1.416,1.102.096,2.1.698,2.996,1.806.328.405.597.813.81,1.223.212.409.371.838.476,1.285.105.447.155.923.15,1.429-.005.507-.057,1.065-.154,1.676l-.362,2.479c-.103.654-.128,1.232-.079,1.733.051.501.142.896.274,1.182l4.776-3.856,1.618,2.004-7.798,6.297Z" fill="#fff"/>
  </g>
  <g>
    <path d="M109.373,141.104c-.541-.476-.999-.976-1.375-1.5-.375-.524-.677-1.086-.906-1.685-.228-.599-.396-1.248-.507-1.947-.109-.699-.174-1.455-.193-2.268l-.051-1.821c0-.489-.029-.908-.089-1.257-.061-.349-.154-.661-.279-.936-.126-.274-.298-.532-.514-.774-.216-.241-.479-.499-.791-.772-1.012-.891-1.873-.934-2.582-.129-.273.311-.425.611-.456.901-.03.29.021.581.154.871s.33.576.593.858c.262.282.554.564.876.847l-2.096,2.382-.466-.41c-1.139-1.002-1.746-2.076-1.818-3.224-.073-1.146.467-2.375,1.622-3.686,1.093-1.243,2.191-1.91,3.293-2.002,1.102-.091,2.188.333,3.257,1.274.392.345.727.7,1.005,1.068.279.367.507.763.687,1.186.179.423.308.885.389,1.384.081.5.125,1.059.132,1.677l.062,2.505c.009.662.082,1.236.215,1.721.135.486.292.859.471,1.119l4.056-4.608,1.933,1.701-6.622,7.524Z" fill="#fff"/>
    <path d="M111.622,127.586c-.248-.831-.138-1.652.332-2.464l-.034-.03c-.375.263-.747.43-1.116.503-.37.073-.725.082-1.065.028-.339-.054-.657-.16-.949-.314-.292-.155-.546-.329-.766-.522-1.196-1.053-1.776-2.129-1.737-3.228.039-1.1.549-2.207,1.531-3.323.982-1.116,2.016-1.764,3.101-1.941,1.085-.178,2.227.259,3.423,1.312.22.193.421.427.606.703s.329.58.425.91c.097.331.134.684.108,1.06-.025.376-.139.761-.341,1.154l.034.03c.745-.569,1.546-.783,2.402-.642.856.141,1.67.551,2.441,1.229.356.313.71.701,1.06,1.163.349.46.587.991.712,1.591.125.601.083,1.263-.125,1.987-.209.725-.688,1.513-1.438,2.364-.75.852-1.471,1.427-2.162,1.726-.693.299-1.345.425-1.956.377-.611-.047-1.168-.216-1.669-.504-.502-.289-.931-.59-1.288-.903-.771-.679-1.281-1.434-1.53-2.265ZM111.632,123.156c.469.024.865-.147,1.189-.516.324-.368.444-.784.36-1.245-.084-.461-.419-.951-1.005-1.467-1.116-.982-2.029-1.071-2.738-.266-.709.805-.505,1.7.611,2.682.586.516,1.114.787,1.583.812ZM116.177,127.997c.294.188.584.311.87.368.286.058.565.043.835-.045.271-.087.53-.27.773-.545.243-.276.39-.555.442-.835.053-.28.032-.558-.061-.835-.093-.276-.252-.548-.476-.817-.223-.268-.479-.529-.766-.782-.3-.263-.594-.486-.882-.668-.289-.182-.576-.303-.862-.36-.286-.058-.563-.042-.835.045-.271.088-.528.27-.771.546-.243.276-.392.554-.445.834-.052.281-.032.558.061.835.094.276.25.546.468.809.217.263.476.526.776.79.287.253.578.474.873.661Z" fill="#fff"/>
  </g>
  <path d="M88.826,147.187c.455,1.073,1.008,2.119,1.657,3.14.648,1.021,1.358,2.001,2.129,2.944.77.942,1.592,1.835,2.467,2.68.874.844,1.765,1.626,2.672,2.347l-1.82,2.956c-.771-.618-1.553-1.316-2.344-2.091-.792-.775-1.558-1.629-2.298-2.562-.739-.932-1.439-1.943-2.1-3.034-.661-1.09-1.245-2.26-1.754-3.509l-3.591,5.833-2.428-1.494,5.255-8.536,2.154,1.326Z" fill="#fff"/>
  <g>
    <path d="M79.47,196.517c-.669-.269-1.267-.587-1.795-.958-.529-.369-1-.798-1.416-1.287-.414-.489-.79-1.044-1.127-1.667-.336-.623-.648-1.314-.938-2.074l-.654-1.7c-.162-.462-.329-.847-.502-1.156-.173-.309-.365-.571-.576-.788-.209-.216-.457-.403-.742-.559-.284-.155-.618-.31-1.002-.464-1.252-.503-2.078-.256-2.478.738-.155.384-.197.718-.129,1.001.067.284.212.541.435.769.221.23.502.434.844.612.341.179.711.348,1.108.508l-1.183,2.944-.575-.231c-1.408-.566-2.338-1.377-2.789-2.434-.45-1.057-.35-2.396.301-4.017.617-1.536,1.43-2.531,2.438-2.985s2.173-.415,3.496.117c.484.194.918.418,1.303.672.386.254.733.55,1.043.89.31.339.585.731.828,1.175.243.445.471.957.683,1.538l.894,2.341c.229.621.488,1.139.776,1.552.289.413.561.712.815.897l2.289-5.696,2.39.96-3.737,9.301Z" fill="#fff"/>
    <path d="M82.816,181.868c.403-.077.707-.372.913-.884.166-.413.201-.778.106-1.097-.096-.319-.287-.615-.574-.887-.287-.272-.656-.523-1.109-.755-.452-.231-.956-.458-1.51-.681l-.725-.292-.017.043c.282.41.443.901.486,1.471.044.571-.073,1.198-.347,1.879-.269.669-.613,1.19-1.037,1.566-.423.375-.903.624-1.44.747-.536.124-1.12.137-1.75.04-.63-.096-1.287-.281-1.969-.556-1.749-.703-2.93-1.627-3.543-2.773-.612-1.147-.576-2.573.11-4.28.423-1.052.955-1.812,1.597-2.281.643-.468,1.355-.74,2.136-.814.782-.074,1.618.011,2.512.254.893.243,1.803.55,2.727.922,1.081.434,2.109.885,3.087,1.352.977.467,1.785,1.015,2.425,1.644.639.629,1.044,1.377,1.214,2.247.171.871.008,1.923-.489,3.161-.217.541-.48,1.042-.791,1.504-.308.462-.686.827-1.132,1.093-.446.267-.961.419-1.547.457-.584.038-1.243-.082-1.973-.359l1.183-2.944c.569.229,1.055.304,1.458.226ZM77.024,179.727c.544-.078.936-.416,1.175-1.014.246-.611.201-1.134-.138-1.567-.337-.433-1.02-.855-2.043-1.267-.427-.171-.834-.31-1.22-.416-.387-.105-.736-.151-1.049-.136-.311.015-.585.103-.824.264-.238.16-.429.418-.572.773-.148.37-.192.695-.131.976.061.28.204.532.427.754.225.223.512.425.86.605.348.182.735.357,1.162.529,1.023.411,1.809.577,2.352.498Z" fill="#fff"/>
  </g>
  <g>
    <path d="M61.512,221.101l-.683,3.169-2.112-.455.063-.292c.232-1.079.212-1.974-.057-2.682-.271-.709-.838-1.243-1.701-1.601l.513-2.382,15.911,3.429-.697,3.236-11.237-2.421Z" fill="#fff"/>
    <path d="M67.326,214.31c-.622-.604-.926-1.375-.912-2.312l-.045-.01c-.198.412-.442.739-.729.983-.288.243-.593.425-.916.544-.324.118-.652.18-.982.188-.332.007-.638-.021-.923-.082-1.558-.336-2.588-.993-3.091-1.971s-.597-2.194-.284-3.647c.313-1.453.9-2.522,1.761-3.207s2.07-.859,3.628-.523c.285.062.575.167.873.317.295.15.568.346.814.587.246.24.45.531.611.872.161.341.25.732.264,1.174l.045.01c.373-.86.968-1.438,1.783-1.732.817-.294,1.727-.333,2.731-.117.464.1.961.266,1.492.498.529.232.995.579,1.397,1.042.402.462.689,1.062.86,1.796.17.734.137,1.656-.103,2.765-.239,1.109-.587,1.962-1.045,2.562s-.966,1.026-1.523,1.283c-.557.256-1.125.38-1.703.374-.579-.007-1.101-.061-1.564-.161-1.005-.216-1.818-.626-2.44-1.231ZM65.174,210.436c.42-.207.684-.55.787-1.03.104-.479.005-.9-.293-1.262-.298-.362-.83-.626-1.593-.791-1.453-.313-2.294.055-2.52,1.104-.226,1.049.389,1.73,1.842,2.043.764.165,1.357.144,1.778-.064ZM71.503,212.446c.348.021.661-.014.939-.103.278-.089.514-.238.708-.447.194-.208.33-.494.407-.853.078-.359.071-.674-.02-.945-.09-.27-.244-.503-.46-.699-.216-.195-.487-.355-.813-.481-.327-.125-.676-.228-1.05-.309-.39-.084-.756-.135-1.096-.153s-.65.017-.929.105c-.278.09-.512.239-.708.448-.194.209-.329.493-.407.853-.077.359-.072.675.02.945.092.271.244.503.46.699.217.196.485.355.803.479s.672.227,1.062.311c.374.081.735.132,1.084.151Z" fill="#fff"/>
  </g>
  <g>
    <path d="M69.736,258.724c-.721-.03-1.391-.132-2.012-.304-.622-.173-1.209-.42-1.764-.742-.553-.322-1.092-.722-1.617-1.196-.525-.475-1.049-1.022-1.576-1.643l-1.184-1.385c-.306-.382-.592-.689-.858-.923-.267-.233-.534-.417-.805-.552-.27-.134-.565-.227-.885-.279s-.687-.086-1.1-.104c-1.348-.057-2.044.45-2.09,1.521-.018.414.054.742.21.987.159.245.382.438.667.581.285.143.618.241,1,.295.381.055.786.091,1.214.109l-.135,3.17-.62-.026c-1.516-.064-2.663-.52-3.439-1.366-.777-.846-1.128-2.142-1.054-3.888.07-1.654.504-2.862,1.305-3.626.799-.764,1.911-1.115,3.334-1.055.521.022,1.005.088,1.453.199.448.111.874.275,1.279.492.405.216.796.494,1.173.832s.762.746,1.156,1.223l1.621,1.91c.424.509.84.91,1.249,1.204.41.293.766.485,1.069.574l.26-6.133,2.573.109-.425,10.015Z" fill="#fff"/>
    <path d="M70.204,247.699c-.721-.031-1.39-.132-2.012-.305-.622-.172-1.209-.419-1.764-.742-.553-.322-1.092-.721-1.617-1.196s-1.049-1.022-1.576-1.643l-1.184-1.385c-.306-.381-.592-.689-.858-.923-.267-.233-.534-.417-.805-.552-.27-.134-.565-.227-.885-.279-.319-.052-.687-.086-1.1-.104-1.348-.057-2.044.45-2.089,1.521-.018.414.053.743.21.987.159.245.381.438.667.581.285.143.618.241,1,.296.381.055.786.091,1.214.109l-.135,3.17-.62-.026c-1.516-.064-2.662-.52-3.439-1.366-.777-.845-1.128-2.142-1.054-3.888.07-1.654.504-2.862,1.304-3.626.799-.764,1.911-1.115,3.335-1.055.521.022,1.005.088,1.452.199.448.111.874.275,1.279.492s.796.494,1.173.833c.377.338.762.745,1.156,1.222l1.621,1.91c.424.509.84.91,1.25,1.204.41.293.766.485,1.068.574l.26-6.133,2.573.109-.425,10.015Z" fill="#fff"/>
  </g>
  <path d="M69.353,281.218c.314-.264.436-.669.366-1.217-.057-.44-.204-.776-.442-1.01-.239-.231-.55-.396-.933-.493-.383-.099-.829-.139-1.336-.12-.507.02-1.057.067-1.65.143l-.774.1.006.045c.445.221.826.57,1.142,1.048.316.477.521,1.08.615,1.811.092.715.044,1.338-.143,1.872-.187.534-.484.985-.893,1.355-.409.367-.912.664-1.509.888-.597.224-1.26.381-1.99.475-1.87.239-3.352.01-4.446-.693-1.094-.702-1.758-1.964-1.992-3.789-.144-1.125-.05-2.049.282-2.771.333-.723.822-1.307,1.467-1.753.647-.445,1.418-.78,2.317-1.004.899-.222,1.842-.397,2.83-.524,1.155-.147,2.273-.256,3.354-.325,1.081-.068,2.053.015,2.918.252.865.236,1.584.694,2.157,1.37.574.676.945,1.675,1.114,2.998.074.577.088,1.143.043,1.697-.045.554-.197,1.056-.456,1.507s-.634.835-1.127,1.153c-.492.317-1.125.534-1.899.647l-.403-3.146c.608-.077,1.069-.248,1.383-.514ZM63.252,282.174c.436-.334.613-.82.532-1.459-.083-.652-.379-1.086-.885-1.301-.506-.213-1.307-.249-2.401-.108-.456.058-.878.135-1.268.231s-.716.228-.981.393c-.265.165-.462.376-.591.632s-.17.574-.121.953c.05.396.17.702.36.917.19.216.437.365.741.449.305.085.653.121,1.046.11.393-.012.817-.048,1.273-.105,1.095-.141,1.86-.378,2.296-.712Z" fill="#fff"/>
  <g>
    <path d="M77.757,317.942c.407-.372.505-.903.293-1.592-.116-.381-.275-.665-.477-.852-.201-.187-.435-.308-.7-.363-.266-.055-.558-.054-.877.005-.319.058-.647.137-.984.24-.352.107-.677.235-.977.384-.299.147-.551.333-.755.556s-.339.488-.405.797c-.065.31-.031.683.104,1.122l.323,1.056-2.066.633-.316-1.033c-.103-.336-.259-.598-.468-.782-.208-.184-.447-.312-.717-.381-.271-.069-.562-.093-.875-.069-.312.024-.631.086-.954.185-.748.229-1.237.516-1.468.858-.231.345-.269.772-.112,1.285.104.337.25.592.439.767.189.174.416.285.679.333.264.048.554.043.874-.016.319-.057.662-.143,1.028-.255l.889,2.902c-1.554.476-2.827.44-3.819-.104-.993-.546-1.718-1.565-2.176-3.061-.435-1.421-.45-2.623-.046-3.604.405-.981,1.296-1.684,2.673-2.105.938-.287,1.768-.312,2.489-.076.722.235,1.277.702,1.667,1.4l.044-.014c-.147-1.062.04-1.899.564-2.517s1.277-1.077,2.259-1.377c.527-.162,1.09-.262,1.688-.301s1.182.063,1.752.305c.571.242,1.098.653,1.581,1.235.482.581.89,1.414,1.222,2.498.463,1.511.398,2.764-.194,3.763-.591.998-1.642,1.729-3.151,2.191l-.065.021-.93-3.034c.904-.292,1.56-.625,1.966-.999Z" fill="#fff"/>
    <path d="M65.957,309.836l.949,3.1-2.066.633-.087-.286c-.323-1.055-.776-1.826-1.358-2.312-.581-.487-1.337-.677-2.266-.568l-.714-2.331,15.563-4.767.969,3.166-10.99,3.366Z" fill="#fff"/>
  </g>
  <g>
    <path d="M82.758,351.031l1.46,2.895-1.93.974-.135-.267c-.497-.985-1.073-1.67-1.729-2.051s-1.432-.44-2.33-.178l-1.098-2.176,14.534-7.329,1.491,2.956-10.264,5.176Z" fill="#fff"/>
    <path d="M72.826,341.956l-1.542-3.059,9.217-4.647-.703-1.396,2.299-1.159.704,1.395,3.018-1.521,1.367,2.71-3.018,1.522,2.608,5.172-2.422,1.221-11.527-.237ZM76.365,339.785l6.951.049-1.449-2.874-5.522,2.784.021.041Z" fill="#fff"/>
  </g>
  <g>
    <path d="M112.794,375.138c-.579.429-1.164.771-1.757,1.028-.591.257-1.204.434-1.838.53s-1.304.125-2.011.085c-.705-.039-1.458-.136-2.257-.288l-1.791-.334c-.478-.104-.893-.163-1.247-.178s-.679.011-.973.076-.583.179-.864.339c-.282.161-.589.364-.921.61-1.084.802-1.307,1.635-.669,2.496.246.333.508.546.784.636.277.091.572.103.883.033.312-.068.633-.201.963-.397.331-.197.669-.424,1.014-.679l1.887,2.55-.499.369c-1.22.902-2.397,1.27-3.534,1.1-1.136-.171-2.224-.958-3.263-2.362-.984-1.331-1.405-2.545-1.264-3.642.143-1.096.786-2.068,1.932-2.916.419-.31.838-.562,1.256-.757.418-.194.853-.335,1.304-.421s.93-.116,1.435-.09,1.062.102,1.667.225l2.461.467c.65.131,1.225.182,1.728.151.503-.028.9-.103,1.192-.224l-3.65-4.935,2.07-1.531,5.961,8.058Z" fill="#fff"/>
    <path d="M97.439,372.628c-.884.558-1.749.94-2.597,1.147-.847.208-1.668.181-2.462-.081-.794-.261-1.55-.878-2.271-1.852-.592-.801-.968-1.548-1.128-2.24-.159-.692-.102-1.382.17-2.07.273-.688.766-1.395,1.477-2.121.711-.726,1.646-1.518,2.805-2.374.912-.675,1.809-1.291,2.693-1.85.883-.559,1.749-.94,2.596-1.148.848-.207,1.659-.174,2.435.102.775.274,1.522.898,2.243,1.872.583.789.966,1.526,1.148,2.21.183.686.138,1.371-.135,2.06-.273.688-.765,1.395-1.477,2.121s-1.646,1.519-2.805,2.375c-.912.675-1.81,1.29-2.692,1.85ZM100.712,366.131c.492-.431.848-.812,1.068-1.146.219-.335.316-.635.291-.901-.026-.268-.144-.543-.354-.826-.219-.296-.467-.483-.746-.563-.278-.081-.625-.048-1.042.099-.417.147-.924.407-1.523.783s-1.317.874-2.155,1.494l-1.423,1.053c-.826.61-1.484,1.131-1.977,1.562-.492.431-.847.812-1.067,1.146-.219.334-.316.636-.291.902.026.267.144.542.354.825.219.296.467.483.746.563.279.08.626.047,1.042-.099.417-.146.924-.407,1.522-.783.599-.376,1.317-.874,2.155-1.494l1.423-1.053c.825-.61,1.484-1.131,1.976-1.562Z" fill="#fff"/>
  </g>
  <path d="M120.329,399.5l2.341,2.244-1.495,1.56-.216-.206c-.797-.764-1.568-1.217-2.313-1.357-.745-.142-1.498.062-2.256.608l-1.76-1.687,11.262-11.752,2.391,2.291-7.953,8.299Z" fill="#fff"/>
  <g>
    <path d="M156.236,416.171c.083-.546-.174-1.021-.772-1.424-.33-.224-.632-.344-.906-.362-.274-.019-.532.033-.772.157-.241.124-.468.309-.68.554-.211.246-.417.514-.614.806-.206.305-.38.608-.52.912-.139.303-.22.604-.238.907-.018.302.044.593.187.874.143.282.404.551.785.809l.914.618-1.21,1.79-.895-.604c-.292-.197-.578-.303-.857-.314-.277-.013-.544.039-.797.154-.253.115-.495.28-.724.496-.228.215-.438.462-.626.742-.438.647-.638,1.178-.603,1.59.036.413.276.77.72,1.07.292.197.566.303.824.32.256.017.502-.039.736-.168.235-.128.458-.314.67-.56.213-.245.426-.527.64-.845l2.515,1.699c-.909,1.346-1.922,2.119-3.037,2.317-1.116.2-2.32-.138-3.616-1.014-1.231-.832-1.998-1.758-2.3-2.775-.301-1.018-.049-2.123.758-3.317.549-.812,1.177-1.354,1.888-1.623.709-.27,1.435-.256,2.177.041l.026-.037c-.783-.732-1.163-1.503-1.143-2.312.021-.81.317-1.64.893-2.49.309-.457.684-.889,1.124-1.294s.959-.693,1.555-.863c.596-.171,1.265-.182,2.005-.032.741.148,1.581.541,2.521,1.176,1.309.885,2.045,1.9,2.213,3.049.167,1.149-.192,2.377-1.076,3.686l-.039.057-2.629-1.776c.521-.796.822-1.466.903-2.012Z" fill="#fff"/>
    <path d="M147.093,409.992c.083-.546-.174-1.021-.771-1.424-.33-.223-.633-.344-.907-.362s-.532.033-.772.157c-.24.124-.467.309-.68.554-.211.245-.417.514-.614.806-.206.305-.379.608-.52.912-.139.303-.219.604-.237.907-.019.302.043.593.186.874s.404.551.785.809l.914.618-1.21,1.79-.895-.604c-.292-.197-.577-.303-.856-.314-.278-.013-.544.039-.798.154-.253.115-.494.28-.724.496-.228.215-.438.462-.626.741-.438.648-.638,1.179-.603,1.592.037.412.277.769.721,1.068.292.197.565.305.823.321.256.017.503-.04.736-.168.236-.128.459-.314.67-.561.213-.245.426-.526.64-.844l2.515,1.699c-.909,1.347-1.922,2.118-3.037,2.317-1.115.2-2.32-.139-3.615-1.014-1.231-.832-1.999-1.758-2.301-2.775-.301-1.018-.049-2.123.758-3.317.549-.812,1.178-1.354,1.888-1.623.709-.27,1.435-.256,2.177.042l.026-.038c-.782-.732-1.163-1.503-1.142-2.312.02-.81.317-1.64.893-2.49.309-.458.684-.889,1.123-1.294.44-.405.959-.693,1.555-.863.596-.171,1.265-.182,2.006-.032.74.149,1.58.541,2.52,1.176,1.309.885,2.046,1.899,2.214,3.049.166,1.149-.192,2.377-1.076,3.686l-.039.057-2.629-1.776c.52-.796.822-1.467.902-2.012Z" fill="#fff"/>
  </g>
  <g>
    <path d="M180.915,438.776l2.954,1.335-.89,1.969-.272-.123c-1.005-.454-1.883-.624-2.634-.508-.75.114-1.39.556-1.923,1.324l-2.221-1.003,6.704-14.833,3.017,1.363-4.734,10.476Z" fill="#fff"/>
    <path d="M167.59,435.074c.063.398.346.713.849.939.391.177.751.227,1.081.147.33-.077.637-.254.921-.529.283-.275.551-.634.801-1.076.25-.441.497-.936.743-1.479l.332-.733-.041-.02c-.428.278-.928.426-1.5.445-.572.019-1.193-.123-1.864-.427-.655-.296-1.163-.664-1.52-1.103-.356-.438-.584-.929-.685-1.47-.1-.542-.088-1.125.034-1.751.123-.626.337-1.273.64-1.944.777-1.718,1.745-2.848,2.908-3.391,1.162-.543,2.581-.436,4.256.322,1.033.467,1.775,1.021,2.227,1.662.45.64.696,1.353.737,2.137.041.783-.079,1.616-.36,2.499-.281.882-.627,1.776-1.037,2.685-.473,1.047-.964,2.049-1.472,3.006-.508.956-1.091,1.743-1.749,2.363-.658.619-1.426,1.007-2.305,1.164-.879.159-1.933-.04-3.161-.595-.531-.24-1.016-.534-1.456-.886-.438-.35-.78-.756-1.025-1.22-.245-.464-.373-.989-.385-1.575-.013-.585.135-1.237.442-1.956l2.892,1.307c-.265.587-.366,1.079-.302,1.478ZM174.334,427.324c.122-.382.183-.729.18-1.041-.001-.312-.077-.59-.229-.834-.149-.245-.4-.445-.749-.604-.363-.164-.686-.223-.968-.173-.283.049-.54.18-.771.396-.232.215-.446.492-.642.832-.196.341-.388.721-.577,1.14-.455,1.005-.655,1.782-.6,2.328.057.546.378.952.965,1.218.601.271,1.124.246,1.571-.072.447-.319.898-.981,1.353-1.987.189-.419.345-.819.467-1.202Z" fill="#fff"/>
  </g>
  <g>
    <path d="M219.43,438.66c-.182.697-.421,1.332-.721,1.903-.299.571-.664,1.094-1.096,1.567-.433.474-.936.916-1.511,1.329-.573.412-1.22.811-1.938,1.194l-1.604.865c-.437.219-.797.434-1.083.645-.284.211-.521.435-.709.671-.188.235-.34.506-.459.807-.118.302-.229.653-.334,1.054-.339,1.305.01,2.093,1.048,2.363.4.104.737.104,1.01.002.272-.104.509-.28.707-.529.199-.249.366-.554.5-.915s.254-.749.362-1.165l3.069.8-.156.601c-.382,1.468-1.067,2.492-2.058,3.074-.992.582-2.333.652-4.024.213-1.602-.418-2.692-1.098-3.27-2.039-.578-.942-.688-2.104-.329-3.483.131-.504.299-.964.502-1.378.203-.414.453-.797.749-1.146.298-.351.651-.675,1.06-.972.411-.297.89-.588,1.439-.872l2.208-1.184c.588-.307,1.067-.629,1.439-.967.374-.339.636-.646.788-.924l-5.941-1.547.648-2.492,9.7,2.525Z" fill="#fff"/>
    <path d="M199.511,450.295l-3.315-.863,2.6-9.989-1.512-.394.648-2.492,1.512.394.852-3.271,2.938.765-.852,3.271,5.606,1.459-.683,2.626-7.794,8.495ZM200.22,446.203l4.629-5.186-3.115-.811-1.558,5.984.044.012Z" fill="#fff"/>
  </g>
  <path d="M240.851,454.795l.658-3.658-.046-.004c-.342.401-.764.677-1.27.826s-1.108.194-1.812.135c-.779-.066-1.411-.271-1.897-.611-.486-.342-.857-.769-1.114-1.283-.256-.514-.419-1.085-.489-1.714-.069-.629-.077-1.265-.022-1.905.077-.902.223-1.712.438-2.432.214-.721.539-1.327.973-1.821.434-.494,1-.846,1.693-1.056.696-.21,1.562-.271,2.601-.183,1.023.087,1.84.295,2.449.624.611.328,1.065.732,1.363,1.211.298.479.481.987.552,1.523.069.537.084,1.035.045,1.492l-.037.436-3.16-.269c.023-.275.033-.566.027-.874-.004-.309-.053-.602-.144-.878-.093-.277-.237-.513-.437-.706-.199-.194-.474-.306-.824-.336-.688-.059-1.203.164-1.546.665-.342.501-.558,1.279-.648,2.333-.057.672-.073,1.231-.051,1.68.024.448.098.808.22,1.08.124.271.303.472.537.599.236.129.536.208.903.239.474.04.848-.062,1.122-.309s.462-.595.562-1.048l2.955.251-1.345,8.769-8.453-.719.218-2.565,5.979.508Z" fill="#fff"/>
  <g>
    <path d="M279.59,452.183l3.23-.275.183,2.153-.298.025c-1.1.094-1.948.374-2.547.84-.599.467-.943,1.165-1.033,2.096l-2.428.206-1.382-16.218,3.299-.28.976,11.453Z" fill="#fff"/>
    <path d="M272.182,452.168c.013,1.045-.115,1.981-.383,2.812s-.721,1.516-1.359,2.055-1.562.86-2.768.963c-.993.084-1.825.013-2.499-.214-.673-.229-1.23-.637-1.674-1.23-.442-.594-.786-1.383-1.032-2.369s-.43-2.198-.552-3.634c-.096-1.131-.15-2.218-.163-3.263-.012-1.044.116-1.982.384-2.812s.722-1.503,1.362-2.02,1.564-.825,2.771-.928c.978-.084,1.806-.023,2.484.18.679.204,1.239.603,1.682,1.195.443.593.787,1.383,1.033,2.369.245.987.43,2.197.552,3.634.096,1.13.15,2.217.162,3.263ZM268.366,445.975c-.108-.645-.247-1.148-.417-1.511-.169-.362-.374-.603-.615-.721-.241-.117-.536-.162-.888-.132-.366.031-.657.145-.871.34-.215.194-.368.507-.462.939-.094.431-.138.999-.132,1.706.007.707.054,1.581.143,2.619l.15,1.764c.087,1.022.185,1.855.294,2.502.108.645.247,1.147.417,1.51.169.362.374.603.615.721.24.118.536.162.888.133.366-.031.656-.146.871-.34.214-.196.368-.51.463-.939.094-.433.137-1,.131-1.708-.007-.707-.054-1.579-.143-2.617l-.15-1.765c-.087-1.023-.185-1.857-.294-2.501Z" fill="#fff"/>
  </g>
  <g>
    <path d="M313.158,433.3c.182.697.281,1.368.299,2.014.018.644-.047,1.279-.193,1.903-.146.623-.369,1.256-.67,1.896s-.67,1.304-1.109,1.988l-.978,1.536c-.274.405-.485.769-.631,1.092s-.243.634-.292.931c-.049.298-.051.607-.008.93.045.319.119.681.224,1.081.34,1.306,1.028,1.823,2.067,1.553.4-.104.693-.269.881-.49.188-.225.308-.493.359-.808.054-.314.05-.662-.01-1.043-.059-.38-.143-.778-.251-1.193l3.07-.8.156.601c.383,1.469.283,2.698-.298,3.689-.582.989-1.718,1.706-3.408,2.146-1.603.417-2.886.355-3.85-.186-.965-.541-1.626-1.5-1.985-2.879-.132-.505-.21-.987-.235-1.448-.024-.46.008-.916.096-1.367.089-.45.238-.905.452-1.364s.489-.947.831-1.464l1.35-2.11c.363-.553.625-1.069.786-1.547s.239-.874.235-1.189l-5.939,1.548-.649-2.492,9.7-2.527Z" fill="#fff"/>
    <path d="M299.649,439.491c-.355-.422-.882-.543-1.579-.361-.385.101-.676.248-.871.442-.194.192-.325.42-.392.684-.065.262-.077.555-.033.875.044.321.11.652.2.994.092.356.206.687.342.991.135.306.309.564.522.779.214.213.474.358.779.438s.682.062,1.126-.055l1.068-.278.544,2.09-1.045.272c-.342.089-.608.234-.802.436-.193.2-.33.434-.411.701-.081.267-.116.556-.106.87.011.314.059.635.145.961.196.757.462,1.258.795,1.503.333.247.76.302,1.278.166.341-.089.603-.224.785-.406.182-.183.303-.403.361-.665.059-.26.066-.551.022-.872s-.114-.668-.211-1.038l2.937-.765c.409,1.572.32,2.843-.267,3.811-.587.969-1.637,1.65-3.15,2.044-1.438.375-2.639.34-3.603-.106-.964-.445-1.628-1.365-1.99-2.76-.248-.949-.237-1.78.028-2.489.267-.712.756-1.247,1.47-1.607l-.011-.045c-1.066.104-1.896-.119-2.491-.669-.595-.551-1.021-1.323-1.28-2.315-.139-.533-.215-1.101-.229-1.698-.014-.599.113-1.179.379-1.739.267-.559.699-1.069,1.301-1.526s1.451-.828,2.549-1.114c1.527-.398,2.777-.281,3.75.353.974.634,1.658,1.714,2.057,3.241l.018.068-3.07.799c-.254-.916-.56-1.585-.915-2.007Z" fill="#fff"/>
  </g>
  <path d="M339.713,430.209c-.116.859-.555,1.562-1.317,2.109l.019.041c.45-.084.858-.084,1.225.002.367.086.694.225.981.413.288.19.533.417.735.678.203.262.363.525.484.791.656,1.452.74,2.671.253,3.656-.487.986-1.409,1.785-2.764,2.397s-2.563.776-3.626.491c-1.062-.284-1.922-1.153-2.578-2.604-.12-.266-.208-.562-.264-.891-.056-.327-.061-.663-.013-1.004s.16-.679.339-1.011c.178-.332.439-.636.786-.911l-.019-.041c-.914.211-1.731.076-2.454-.404-.722-.481-1.294-1.189-1.718-2.126-.195-.432-.358-.931-.486-1.495-.129-.563-.127-1.146.006-1.743.133-.599.444-1.186.933-1.759.489-.574,1.251-1.095,2.284-1.562,1.033-.467,1.927-.695,2.681-.683.755.012,1.4.166,1.937.462.537.294.976.678,1.314,1.146.338.469.605.921.801,1.353.424.937.576,1.834.461,2.694ZM335.73,427.96c-.19-.293-.404-.524-.641-.694-.237-.171-.498-.271-.781-.304-.283-.03-.593.028-.928.18s-.584.346-.748.578c-.163.233-.259.496-.287.786-.029.291.004.604.096.941.094.335.22.678.377,1.027.164.363.341.688.528.973.188.284.4.513.638.684.236.17.496.27.779.303.284.032.593-.029.928-.181.336-.151.586-.343.748-.577.164-.234.26-.496.289-.786.028-.291-.003-.602-.093-.93-.09-.329-.218-.676-.382-1.039-.157-.349-.332-.67-.523-.961ZM337.878,434.242c-.417-.215-.849-.222-1.296-.02s-.727.531-.841.985c-.113.456-.01,1.04.312,1.752.612,1.354,1.408,1.812,2.386,1.369s1.159-1.342.547-2.695c-.321-.712-.691-1.176-1.108-1.392Z" fill="#fff"/>
  <g>
    <path d="M367.427,408.288c-.476-.28-1.012-.218-1.608.186-.33.224-.556.459-.675.706-.12.246-.167.506-.142.776.025.269.112.549.26.836.149.289.322.578.52.871.206.305.424.578.652.821.229.243.48.428.753.56.272.13.566.181.881.153.314-.028.663-.17,1.044-.427l.914-.618,1.209,1.789-.895.604c-.292.198-.496.424-.611.678-.115.253-.166.52-.153.799.012.277.075.563.189.855.115.293.267.579.455.858.438.648.855,1.032,1.251,1.152.396.121.816.03,1.262-.27.292-.197.493-.412.604-.646.111-.231.151-.48.12-.746-.031-.267-.121-.543-.271-.831-.147-.287-.33-.591-.544-.908l2.514-1.699c.91,1.346,1.25,2.573,1.019,3.683-.231,1.108-.994,2.101-2.289,2.976-1.231.833-2.376,1.199-3.433,1.101-1.058-.1-1.989-.746-2.796-1.939-.55-.813-.817-1.599-.803-2.357.014-.759.298-1.428.851-2.005l-.025-.038c-.971.453-1.828.519-2.571.199-.744-.321-1.404-.907-1.979-1.758-.31-.457-.57-.965-.781-1.524-.213-.56-.286-1.148-.223-1.766.064-.616.304-1.241.719-1.873.414-.631,1.092-1.266,2.031-1.9,1.308-.884,2.525-1.189,3.654-.916,1.128.273,2.134,1.063,3.019,2.371l.038.058-2.628,1.776c-.545-.778-1.056-1.308-1.531-1.587Z" fill="#fff"/>
    <path d="M365.799,419.365c.521.906.866,1.787,1.037,2.642.172.855.11,1.675-.185,2.457-.295.781-.943,1.512-1.946,2.189-.825.559-1.588.902-2.285,1.032-.699.129-1.386.044-2.062-.258-.676-.303-1.36-.822-2.057-1.564-.695-.742-1.447-1.71-2.254-2.903-.635-.94-1.212-1.863-1.732-2.769-.521-.906-.866-1.787-1.037-2.644-.171-.854-.104-1.663.204-2.427s.963-1.484,1.966-2.162c.812-.549,1.565-.9,2.257-1.053.692-.154,1.375-.079,2.052.223.676.301,1.361.823,2.057,1.564.695.742,1.446,1.708,2.254,2.902.635.939,1.213,1.862,1.732,2.77ZM359.448,415.819c-.41-.51-.777-.882-1.102-1.115-.324-.234-.621-.345-.889-.329-.268.015-.547.12-.839.317-.305.206-.504.447-.595.722-.093.274-.074.623.055,1.045.128.423.367.94.718,1.555.35.613.817,1.354,1.4,2.217l.992,1.467c.574.851,1.066,1.529,1.477,2.041.409.509.775.88,1.101,1.114.324.233.62.343.889.329.268-.016.548-.121.84-.318.305-.206.502-.446.595-.721.091-.275.073-.624-.055-1.046-.129-.423-.368-.94-.719-1.555-.35-.614-.817-1.353-1.4-2.216l-.992-1.467c-.575-.851-1.066-1.531-1.476-2.04Z" fill="#fff"/>
  </g>
  <g>
    <path d="M397.604,393.815l2.34-2.243,1.495,1.561-.216.207c-.796.764-1.281,1.515-1.454,2.253-.173.739,0,1.499.513,2.279l-1.76,1.687-11.263-11.75,2.39-2.291,7.955,8.298Z" fill="#fff"/>
    <path d="M389.637,401.452l2.341-2.243,1.495,1.561-.216.207c-.797.764-1.281,1.515-1.454,2.253s-.002,1.499.513,2.279l-1.76,1.687-11.263-11.75,2.39-2.291,7.954,8.298Z" fill="#fff"/>
  </g>
  <g>
    <path d="M411.797,362.465c-.541-.105-1.026.132-1.455.711-.236.32-.369.617-.4.891-.03.272.011.532.125.778s.288.48.524.702c.236.223.496.438.779.647.296.219.592.405.889.558.298.153.596.244.896.277.3.03.595-.019.882-.149.287-.13.568-.38.842-.75l.655-.888,1.736,1.284-.642.869c-.21.283-.326.564-.351.842s.017.546.121.805c.104.258.259.505.464.743.206.237.444.457.716.657.629.465,1.149.688,1.563.67.414-.018.78-.242,1.1-.674.209-.283.327-.554.354-.81.028-.256-.017-.504-.136-.744-.118-.24-.295-.471-.531-.693-.235-.222-.509-.447-.816-.675l1.805-2.439c1.307.966,2.036,2.01,2.188,3.132.151,1.123-.238,2.312-1.167,3.569-.884,1.195-1.841,1.923-2.87,2.181-1.03.259-2.125-.041-3.283-.896-.789-.584-1.303-1.235-1.542-1.955-.239-.721-.194-1.445.135-2.175l-.037-.026c-.765.749-1.55,1.098-2.358,1.044-.809-.056-1.625-.388-2.45-.998-.444-.328-.859-.721-1.245-1.178-.387-.457-.651-.987-.798-1.59-.144-.603-.127-1.272.054-2.006s.608-1.556,1.282-2.468c.939-1.27,1.984-1.964,3.14-2.082s2.368.293,3.637,1.23l.056.041-1.887,2.552c-.772-.554-1.431-.882-1.973-.987Z" fill="#fff"/>
    <path d="M412.434,380.147c.402.021.769-.188,1.097-.633.256-.345.379-.687.372-1.025s-.115-.676-.324-1.012c-.209-.337-.504-.673-.883-1.011-.38-.338-.81-.684-1.29-1.039l-.647-.479-.027.037c.181.477.222.997.119,1.561-.102.562-.372,1.14-.809,1.731-.429.579-.895.997-1.398,1.254-.504.256-1.032.376-1.582.359s-1.118-.15-1.704-.402c-.585-.252-1.174-.596-1.767-1.034-1.515-1.12-2.417-2.306-2.701-3.557-.286-1.25.118-2.614,1.211-4.093.675-.912,1.372-1.521,2.094-1.826.722-.306,1.469-.396,2.244-.271.774.125,1.563.417,2.367.878s1.605.987,2.406,1.58c.924.683,1.801,1.374,2.627,2.071.829.697,1.476,1.434,1.943,2.208.466.773.685,1.606.653,2.499-.031.892-.447,1.88-1.25,2.965-.346.468-.735.881-1.17,1.236-.435.354-.904.604-1.409.744-.505.142-1.045.157-1.62.046-.576-.111-1.183-.393-1.82-.845l1.887-2.551c.518.382.978.584,1.382.606ZM406.277,371.922c-.348-.2-.674-.332-.979-.396-.306-.062-.594-.048-.864.048-.27.096-.52.297-.748.605-.236.32-.36.624-.373.91-.012.286.063.565.225.838.161.271.387.539.68.803.291.263.621.531.991.805.888.655,1.604,1.014,2.149,1.075.547.061,1.012-.168,1.394-.686.393-.53.479-1.048.261-1.552-.219-.504-.771-1.085-1.658-1.74-.37-.273-.729-.51-1.076-.71Z" fill="#fff"/>
  </g>
  <g>
    <path d="M435.426,338.768l1.459-2.895,1.93.973-.134.268c-.497.985-.703,1.855-.621,2.609.084.754.499,1.413,1.243,1.979l-1.097,2.176-14.534-7.326,1.49-2.957,10.264,5.174Z" fill="#fff"/>
    <path d="M422.582,344.458c-.553-.012-.99.304-1.314.946-.18.356-.26.672-.244.945.016.274.101.523.255.746.153.224.365.425.635.604.271.179.563.348.878.507.328.166.652.298.971.398s.627.141.93.122c.301-.021.582-.119.844-.296.262-.178.495-.472.702-.882l.497-.985,1.93.972-.486.966c-.159.314-.228.61-.203.889.022.277.107.534.255.771.146.237.34.455.582.655.244.198.516.375.816.526.699.353,1.25.484,1.654.396.405-.088.729-.371.97-.851.158-.315.229-.601.212-.858-.015-.256-.102-.493-.259-.71-.157-.216-.37-.414-.641-.593-.27-.18-.577-.355-.919-.527l1.366-2.71c1.451.731,2.346,1.638,2.686,2.718.338,1.08.156,2.319-.548,3.715-.669,1.328-1.489,2.205-2.46,2.635-.971.428-2.1.318-3.387-.33-.877-.441-1.493-.997-1.85-1.666-.358-.67-.437-1.392-.235-2.165l-.041-.021c-.628.868-1.343,1.344-2.147,1.428-.808.082-1.668-.107-2.585-.569-.492-.249-.968-.565-1.426-.95-.458-.386-.81-.863-1.055-1.434-.244-.569-.341-1.231-.286-1.984.054-.754.336-1.638.847-2.65.71-1.409,1.624-2.271,2.743-2.582,1.118-.312,2.382-.112,3.791.599l.062.031-1.428,2.833c-.854-.414-1.56-.627-2.11-.64Z" fill="#fff"/>
  </g>
  <g>
    <path d="M436.945,300.284c.689.211,1.312.478,1.872.802.557.322,1.063.71,1.519,1.161.454.452.876.974,1.264,1.565.389.592.758,1.254,1.111,1.986l.797,1.639c.2.446.399.816.598,1.109.199.293.412.539.641.736.228.198.49.362.786.494.296.131.644.256,1.039.377,1.29.396,2.092.08,2.405-.945.121-.396.136-.732.045-1.009-.093-.276-.26-.521-.499-.729-.24-.21-.537-.389-.894-.538-.354-.149-.738-.286-1.147-.411l.929-3.034.593.182c1.451.444,2.446,1.173,2.985,2.188.539,1.014.552,2.356.04,4.027-.484,1.583-1.208,2.644-2.175,3.181-.967.538-2.131.598-3.494.181-.498-.152-.949-.339-1.354-.559-.406-.221-.777-.486-1.114-.799-.338-.312-.646-.678-.926-1.1-.279-.423-.549-.914-.811-1.475l-1.088-2.257c-.281-.599-.584-1.093-.906-1.479s-.619-.662-.889-.825l-1.797,5.87-2.463-.754,2.934-9.585Z" fill="#fff"/>
    <path d="M443.593,324.438c-.711-.924-1.51-1.797-2.396-2.621-.886-.823-1.82-1.595-2.803-2.312-.982-.719-2.003-1.375-3.062-1.972-1.06-.598-2.118-1.13-3.178-1.599l1.016-3.318c.902.403,1.835.881,2.796,1.432.962.551,1.918,1.185,2.869,1.9.95.716,1.884,1.519,2.797,2.407s1.774,1.874,2.583,2.954l2.005-6.551,2.726.835-2.934,9.584-2.419-.74Z" fill="#fff"/>
  </g>
  <path d="M453.814,282.616c.363-.178.579-.54.649-1.087.055-.426-.004-.785-.175-1.077s-.43-.534-.777-.725c-.347-.192-.767-.342-1.263-.452-.496-.109-1.04-.203-1.633-.278l-.799-.103-.006.046c.391.328.68.763.865,1.305.186.541.231,1.177.139,1.906-.092.714-.295,1.307-.609,1.776-.315.47-.717.831-1.206,1.086-.488.254-1.05.414-1.684.479-.635.065-1.315.052-2.046-.041-1.87-.239-3.235-.835-4.095-1.787s-1.172-2.341-.938-4.165c.144-1.125.457-1.996.937-2.614.481-.619,1.09-1.062,1.828-1.331.737-.269,1.568-.398,2.495-.387.926.01,1.882.077,2.871.204,1.14.146,2.241.322,3.304.527,1.063.205,1.987.532,2.772.979.784.449,1.382,1.07,1.79,1.863.407.794.525,1.859.354,3.198-.074.577-.213,1.127-.419,1.649-.206.521-.494.969-.866,1.338-.372.37-.836.646-1.393.83s-1.224.233-2,.149l.402-3.146c.638.081,1.138.033,1.501-.145ZM444.43,278.438c-.401-.005-.751.039-1.049.132-.297.094-.541.248-.73.463-.19.216-.31.513-.358.894-.051.395-.011.721.119.977.129.256.331.463.604.622.273.159.601.282.984.369.383.088.802.161,1.258.22,1.095.14,1.896.103,2.402-.11.505-.214.8-.64.882-1.278.084-.653-.094-1.147-.529-1.481-.437-.334-1.202-.57-2.297-.71-.456-.059-.884-.091-1.285-.096Z" fill="#fff"/>
  <g>
    <path d="M444.1,240.958c-.487.258-.716.747-.686,1.467.018.397.1.713.248.944.147.231.343.407.586.527s.525.193.849.217c.324.024.661.029,1.014.014.367-.016.714-.057,1.042-.125.326-.067.616-.184.871-.348.253-.164.451-.387.593-.669.141-.283.201-.652.182-1.112l-.047-1.103,2.159-.092.046,1.079c.016.353.101.643.257.875.155.231.354.415.599.55.243.136.52.23.829.287.309.056.632.077.969.062.781-.033,1.326-.188,1.637-.461.311-.274.455-.68.432-1.215-.015-.353-.092-.637-.231-.853-.14-.216-.331-.381-.573-.493-.243-.113-.526-.181-.849-.206-.323-.025-.677-.029-1.06-.013l-.129-3.032c1.622-.069,2.846.286,3.67,1.063.822.778,1.268,1.948,1.334,3.51.063,1.484-.225,2.651-.863,3.5-.639.847-1.678,1.301-3.117,1.363-.98.042-1.789-.141-2.428-.552-.64-.41-1.06-1.001-1.261-1.774l-.046.002c-.124,1.063-.518,1.828-1.181,2.293-.662.464-1.507.72-2.532.763-.552.024-1.121-.021-1.709-.134s-1.128-.358-1.619-.736c-.491-.378-.897-.909-1.218-1.594-.32-.684-.506-1.593-.554-2.726-.067-1.578.311-2.774,1.136-3.593.823-.817,2.024-1.259,3.602-1.327l.069-.003.135,3.17c-.948.055-1.667.212-2.154.472Z" fill="#fff"/>
    <path d="M458.321,253.111l.146,3.423-10.313.439.067,1.562-2.573.109-.066-1.562-3.377.145-.129-3.033,3.377-.144-.247-5.788,2.71-.116,10.406,4.964ZM454.201,253.632l-6.313-2.907.137,3.216,6.179-.263-.002-.046Z" fill="#fff"/>
  </g>
  <g>
    <path d="M447.595,207.675l-.684-3.17,2.112-.456.062.293c.232,1.078.619,1.885,1.157,2.42.538.534,1.275.787,2.21.758l.514,2.383-15.91,3.431-.698-3.236,11.236-2.423Z" fill="#fff"/>
    <path d="M453.146,224.257c-1.072-.459-2.195-.833-3.37-1.12-1.175-.286-2.366-.504-3.574-.651s-2.419-.224-3.636-.228c-1.216-.004-2.399.049-3.553.155l-.731-3.393c.983-.087,2.03-.125,3.139-.113,1.108.01,2.251.098,3.431.26,1.18.161,2.385.406,3.616.736,1.231.331,2.463.77,3.694,1.32l-1.444-6.696,2.787-.601,2.113,9.798-2.472.533Z" fill="#fff"/>
  </g>
  <g>
    <path d="M424.602,176.779c.668-.269,1.32-.453,1.958-.552.637-.1,1.274-.116,1.913-.05.637.066,1.293.208,1.967.423.672.216,1.377.499,2.112.848l1.648.774c.437.221.823.384,1.162.487s.659.161.961.172c.302.01.608-.027.923-.111.312-.085.66-.204,1.045-.358,1.25-.503,1.677-1.253,1.276-2.248-.154-.385-.354-.656-.599-.813-.246-.158-.527-.243-.846-.254-.319-.013-.664.035-1.033.142-.37.108-.754.242-1.152.402l-1.183-2.943.575-.231c1.408-.566,2.64-.625,3.696-.173,1.058.451,1.911,1.487,2.563,3.108.617,1.536.719,2.816.306,3.842-.414,1.025-1.282,1.804-2.604,2.335-.484.194-.953.334-1.406.416-.454.083-.91.11-1.368.08-.458-.031-.929-.123-1.411-.275-.482-.153-1.002-.366-1.558-.638l-2.265-1.072c-.596-.29-1.14-.484-1.633-.582-.495-.099-.898-.126-1.212-.083l2.29,5.695-2.389.96-3.738-9.3Z" fill="#fff"/>
    <path d="M442.384,185.143l-3.562,1.06.017.043c.512.125.948.377,1.31.761.36.384.672.902.935,1.557.292.726.396,1.381.31,1.969-.086.588-.301,1.112-.645,1.572-.343.46-.78.864-1.31,1.208-.53.345-1.095.639-1.691.878-.84.337-1.629.572-2.368.704-.74.132-1.429.116-2.064-.049-.637-.165-1.205-.511-1.705-1.037-.501-.526-.945-1.271-1.334-2.238-.384-.954-.564-1.776-.546-2.469.019-.694.175-1.28.469-1.762.293-.482.664-.875,1.111-1.178.448-.304.886-.541,1.312-.712l.406-.163,1.183,2.942c-.256.103-.521.226-.793.37-.273.142-.513.317-.719.524s-.352.442-.434.707c-.084.265-.061.561.071.888.258.641.688,1.001,1.289,1.081s1.394-.077,2.375-.472c.625-.251,1.133-.489,1.523-.712.389-.222.677-.45.864-.682s.285-.482.294-.749c.008-.269-.057-.573-.194-.914-.177-.441-.438-.728-.779-.863-.344-.135-.74-.144-1.189-.03l-1.106-2.752,8.436-2.747,3.164,7.871-2.39.96-2.237-5.566Z" fill="#fff"/>
  </g>
  <path d="M411.68,154.122c.613-.378,1.226-.67,1.837-.875s1.237-.33,1.877-.373c.639-.042,1.31-.013,2.01.086.7.099,1.442.258,2.226.478l1.756.485c.467.144.876.238,1.228.283.352.044.677.046.977.006.299-.04.595-.128.89-.264.294-.137.617-.313.97-.53,1.148-.707,1.44-1.518.878-2.431-.217-.353-.459-.586-.728-.7s-.561-.15-.876-.108c-.316.042-.648.147-.994.315-.347.168-.703.364-1.068.589l-1.663-2.7.528-.326c1.292-.796,2.496-1.062,3.614-.795,1.118.265,2.136,1.142,3.052,2.63.867,1.409,1.185,2.653.949,3.735-.234,1.08-.958,1.994-2.172,2.742-.443.273-.882.489-1.315.647-.433.159-.878.262-1.335.31-.456.047-.936.036-1.438-.032-.502-.069-1.049-.191-1.643-.366l-2.412-.674c-.637-.186-1.206-.284-1.709-.297-.505-.014-.906.026-1.208.121l3.22,5.227-2.192,1.351-5.257-8.534Z" fill="#fff"/>
  <g>
    <path d="M388.577,125.133c.541-.476,1.095-.868,1.663-1.173.567-.306,1.163-.534,1.786-.684.623-.151,1.289-.236,1.996-.256.706-.021,1.465.011,2.273.096l1.813.181c.484.062.903.086,1.258.071.354-.016.675-.069.963-.158.288-.09.565-.229.833-.412.267-.184.556-.412.866-.686,1.012-.891,1.163-1.74.455-2.544-.274-.312-.553-.5-.836-.567-.283-.066-.578-.053-.883.042-.304.095-.613.254-.926.479-.313.225-.631.479-.953.762l-2.096-2.381.466-.41c1.139-1.002,2.281-1.468,3.428-1.395,1.146.073,2.297.765,3.452,2.077,1.094,1.242,1.615,2.416,1.567,3.521-.049,1.104-.607,2.128-1.677,3.07-.392.344-.787.632-1.188.86-.4.23-.821.407-1.264.531s-.916.194-1.422.211c-.507.017-1.066-.01-1.682-.083l-2.492-.256c-.657-.075-1.235-.076-1.733-.005-.499.072-.889.18-1.17.324l4.057,4.608-1.933,1.701-6.624-7.523Z" fill="#fff"/>
    <path d="M406.989,128.65l-2.143-2.434,1.622-1.428.197.225c.729.828,1.459,1.345,2.19,1.548.73.204,1.497.065,2.298-.416l1.611,1.83-12.217,10.755-2.188-2.485,8.628-7.596Z" fill="#fff"/>
  </g>
  <path d="M383.202,98.743l2.665,2.152-6.483,8.032,1.216.981-1.617,2.003-1.216-.981-2.123,2.63-2.361-1.906,2.123-2.63-4.508-3.639,1.704-2.111,10.601-4.532ZM380.87,102.18l-6.353,2.819,2.505,2.021,3.884-4.812-.036-.029Z" fill="#fff"/>
  <g>
    <path d="M346.302,80.244l-2.831-1.581,1.054-1.887.261.146c.964.538,1.824.782,2.581.73.756-.052,1.433-.438,2.028-1.158l2.128,1.188-7.936,14.211-2.89-1.614,5.604-10.036Z" fill="#fff"/>
    <path d="M351.51,93.62c.025.409.28.749.762,1.018.389.217.747.298,1.075.245.327-.054.646-.206.952-.456.306-.25.603-.584.89-1.004.286-.419.575-.89.866-1.411l.381-.683-.039-.022c-.442.227-.95.326-1.521.296s-1.178-.224-1.82-.583c-.63-.352-1.103-.76-1.421-1.228-.319-.467-.505-.975-.559-1.523-.054-.547.007-1.128.183-1.741.176-.613.443-1.241.803-1.883.919-1.646,1.984-2.7,3.2-3.163,1.215-.462,2.624-.246,4.23.651.99.553,1.678,1.178,2.061,1.874.383.697.562,1.438.537,2.223-.026.784-.216,1.604-.57,2.459-.355.855-.776,1.718-1.262,2.587-.567,1.018-1.145,1.981-1.731,2.891-.587.91-1.233,1.642-1.938,2.197-.705.555-1.5.861-2.385.92-.884.059-1.907-.236-3.072-.886-.508-.284-.973-.609-1.391-.975-.419-.365-.732-.786-.94-1.263-.209-.476-.294-1.006-.257-1.591.037-.585.239-1.223.607-1.913l2.77,1.547c-.299.535-.436,1.007-.41,1.417ZM354.369,88.146c.01.55.295.981.856,1.295.575.321,1.1.341,1.572.061.472-.28.979-.901,1.517-1.865.224-.401.412-.787.566-1.157.154-.371.243-.712.269-1.022.024-.311-.028-.596-.157-.852s-.36-.478-.695-.664c-.348-.194-.665-.279-.95-.255-.286.024-.554.135-.803.329s-.485.452-.71.775c-.224.323-.447.685-.672,1.086-.537.964-.803,1.72-.793,2.269Z" fill="#fff"/>
  </g>
  <g>
    <path d="M315.301,67.512l-3.057-1.079.719-2.038.281.1c1.041.367,1.931.462,2.668.283.736-.178,1.338-.673,1.804-1.483l2.299.812-5.42,15.348-3.122-1.103,3.828-10.839Z" fill="#fff"/>
    <path d="M325.942,69.271l-1.557,3.375.043.015c.433-.302.91-.462,1.438-.479.525-.017,1.121.092,1.786.326.738.261,1.298.617,1.683,1.069.385.453.636.96.755,1.522.118.562.133,1.156.042,1.782-.093.626-.244,1.243-.459,1.85-.301.853-.647,1.601-1.036,2.243-.39.643-.856,1.148-1.4,1.517-.545.369-1.18.566-1.905.595-.725.028-1.579-.131-2.562-.478-.969-.342-1.707-.749-2.214-1.221-.509-.472-.847-.977-1.014-1.515-.167-.54-.217-1.077-.149-1.613.067-.537.179-1.022.332-1.456l.146-.412,2.99,1.057c-.092.26-.175.54-.247.839-.073.3-.101.595-.081.886.019.292.099.556.243.793.144.238.382.415.714.533.651.23,1.206.145,1.663-.254.458-.398.863-1.097,1.215-2.094.225-.636.382-1.174.473-1.613.09-.439.109-.806.06-1.1-.051-.294-.175-.533-.369-.715-.196-.184-.467-.336-.813-.458-.448-.159-.836-.153-1.163.016-.329.168-.598.459-.81.872l-2.797-.987,3.512-8.147,8,2.825-.858,2.428-5.658-1.998Z" fill="#fff"/>
  </g>
  <g>
    <path d="M280.916,68.951c.149.531.579.857,1.29.979.393.067.718.053.975-.043.258-.096.471-.249.64-.462.168-.212.299-.473.391-.784s.168-.64.228-.987c.062-.362.095-.71.098-1.044.003-.334-.05-.642-.156-.925-.107-.283-.284-.523-.529-.721-.247-.198-.597-.335-1.05-.413l-1.088-.187.365-2.13,1.065.182c.347.06.649.038.91-.065.258-.104.479-.26.662-.47.184-.209.335-.459.455-.75.119-.291.209-.602.266-.934.132-.771.097-1.337-.106-1.698-.203-.361-.568-.587-1.097-.678-.348-.06-.642-.043-.883.047-.241.091-.441.243-.603.457-.162.214-.288.476-.379.787-.093.311-.171.655-.235,1.033l-2.992-.513c.274-1.601.878-2.722,1.813-3.363.934-.641,2.17-.83,3.711-.566,1.465.251,2.545.778,3.24,1.582.693.803.919,1.915.676,3.334-.166.967-.516,1.72-1.051,2.258-.536.539-1.203.824-2.001.858l-.008.045c1.014.345,1.678.89,1.993,1.636.314.746.387,1.625.213,2.637-.093.544-.257,1.091-.491,1.642-.234.551-.588,1.027-1.061,1.428-.473.401-1.077.687-1.814.855-.736.169-1.663.159-2.78-.033-1.557-.267-2.647-.889-3.273-1.867-.625-.977-.805-2.245-.538-3.8l.012-.068,3.127.536c-.146.939-.144,1.674.007,2.205Z" fill="#fff"/>
    <path d="M287.81,72.756c.122-.71.308-1.362.557-1.958.25-.595.57-1.146.96-1.655.391-.508.854-.993,1.393-1.453.536-.46,1.146-.912,1.83-1.355l1.523-.998c.417-.255.757-.5,1.023-.734.266-.235.482-.477.649-.728.168-.251.297-.533.39-.844.092-.311.173-.67.243-1.078.228-1.329-.188-2.084-1.244-2.266-.408-.069-.744-.042-1.007.084-.263.127-.483.323-.66.587-.178.266-.318.584-.42.954-.103.372-.19.769-.263,1.191l-3.127-.535.105-.612c.256-1.496.852-2.575,1.79-3.238.938-.664,2.269-.849,3.99-.553,1.632.279,2.775.864,3.433,1.754.654.89.863,2.038.622,3.442-.088.514-.215.986-.383,1.416-.166.43-.383.833-.649,1.207-.266.375-.591.727-.974,1.058-.384.331-.836.661-1.36.992l-2.099,1.366c-.56.356-1.011.717-1.354,1.086-.344.369-.578.698-.705.987l6.051,1.036-.436,2.538-9.88-1.692Z" fill="#fff"/>
  </g>
</svg>